<svg width="147" height="103" viewBox="0 0 147 103" fill="none" xmlns="http://www.w3.org/2000/svg">
<path d="M94.0579 5.15473C94.0579 5.647 94.1253 6.47877 94.2265 6.97104C94.4626 8.27809 95.7609 10.7903 96.6884 11.7409C97.1099 12.1992 97.4303 12.5557 97.3966 12.5727C97.3797 12.5727 96.6715 12.7424 95.8284 12.9461L94.3108 13.3196V24.7775C94.3108 31.0751 94.3277 39.6983 94.3614 43.925L94.412 51.6146L95.2045 51.4958C95.8621 51.4109 97.346 51.1053 99.2514 50.664C99.5718 50.5791 99.6392 50.4603 99.6223 50.0189C99.6055 49.7134 99.5886 41.4807 99.6055 31.6862L99.6223 13.9137L100.094 14.0325C100.347 14.1174 101.646 14.1683 102.995 14.1513C105.558 14.1344 107.311 13.8119 108.778 13.0819C109.335 12.8103 109.689 12.7764 111.476 12.8443C112.96 12.9122 113.82 12.8613 114.596 12.6745C115.371 12.4878 115.675 12.4708 115.726 12.6236C116.467 15.034 116.956 15.747 118.558 16.7145C119.351 17.1898 119.654 17.4614 119.587 17.6481C119.334 18.3441 119.334 20.0076 119.604 21.0261C120.16 23.1649 121.054 24.3871 122.808 25.3716C123.28 25.6432 123.668 25.8809 123.701 25.8979C123.735 25.9148 123.634 26.3392 123.499 26.8315C123.162 27.9857 123.162 29.9039 123.499 31.0751C123.651 31.5844 124.072 32.5689 124.426 33.2819L125.101 34.5719L124.494 35.5735C123.836 36.6598 123.162 38.6289 122.976 39.9699C122.909 40.4282 122.74 41.3279 122.622 41.939C122.386 43.0084 122.319 43.0933 121.526 43.6025C120.396 44.3494 118.929 45.8432 118.356 46.8616C118.002 47.4897 117.682 47.8122 117.041 48.1178C116.569 48.3554 115.877 48.8816 115.489 49.306C114.899 49.9341 114.68 50.0699 114.157 50.0699C112.943 50.0868 111.679 50.7489 110.785 51.8352C110.667 51.988 110.431 52.1068 110.262 52.1068C110.094 52.1068 109.47 52.2936 108.88 52.5142L107.817 52.9047L106.974 52.5142C106.013 52.0559 105.052 52.022 102.32 52.2766C99.9933 52.4973 99.3357 52.684 97.3628 53.6176C95.3731 54.5512 94.2434 55.5357 93.5858 56.8937C93.3666 57.352 93.1642 57.7085 93.1136 57.7085C93.0799 57.7085 92.827 57.2672 92.5572 56.707C91.5792 54.7549 90.2977 54.3305 88.3754 55.2641C86.1328 56.3845 85.374 57.7934 85.374 60.8828C85.374 63.6836 85.1379 63.7006 84.2948 60.9337C83.3843 58.014 82.6929 57.0295 81.5294 57.0295C80.6189 57.0295 78.7472 57.7764 77.3983 58.6761C75.9481 59.6436 75.2231 60.4245 74.498 61.7485C74.0933 62.4954 74.0427 62.5463 73.4863 62.4614C72.6095 62.3426 71.5977 62.3766 71.1087 62.5293C70.7715 62.6312 70.5692 62.5633 70.1645 62.2238C69.5406 61.6976 68.7312 61.6466 66.5054 62.054C64.1953 62.4614 62.0539 63.4629 60.6374 64.8039L60.0136 65.3981L59.0356 65.1265C56.7761 64.4475 55.7475 64.2947 53.1339 64.2098C48.4294 64.0401 45.5628 64.77 42.3759 66.9258C39.2059 69.0646 36.4574 72.8669 35.648 76.2279C35.3108 77.6368 35.2939 80.0812 35.6311 81.3713C36.6597 85.3264 40.2176 88.3479 44.9895 89.3494C45.6809 89.4852 46.3385 89.5531 46.4565 89.4852C46.6083 89.4003 46.3722 88.9929 45.6303 88.0933C43.8935 85.9545 42.9661 83.3913 43.472 82.1351C44.2139 80.3358 46.4734 79.0967 50.1324 78.5025C52.1559 78.163 52.8978 78.18 53.8083 78.5874C55.1236 79.1815 55.8486 79.1815 57.5854 78.6214C59.6932 77.9424 61.1939 77.0427 62.5091 75.7187C63.8749 74.3268 64.7012 72.7821 64.8361 71.3392L64.9373 70.3207L65.6623 70.4056C66.556 70.5074 68.8998 69.8115 69.8441 69.1664C70.1813 68.9288 70.5017 68.7421 70.5523 68.7421C70.6029 68.7421 71.0076 69.0646 71.4291 69.438C72.424 70.3207 74.6329 71.4241 75.7121 71.5599C76.1505 71.6278 76.5214 71.7127 76.5214 71.7636C76.5214 71.8145 76.1673 72.2049 75.7289 72.6293C74.5317 73.8005 73.9247 75.0397 73.9078 76.3298C73.9078 77.8575 74.1608 77.9933 74.8858 76.856C75.965 75.1755 77.2128 74.3268 79.2868 73.9024C80.3997 73.6647 82.4231 73.6987 82.4231 73.9703C82.4231 74.0212 82.1871 74.2589 81.9173 74.4965C81.4451 74.9039 80.9393 76.0412 81.2259 76.0412C81.2934 76.0412 81.6475 75.9054 82.0184 75.7187C82.8784 75.3113 83.4854 75.1246 83.4011 75.2943C82.8953 76.3298 82.6929 76.9409 82.6255 77.6029C82.5412 78.4856 82.7098 78.6383 83.0976 78.0612C83.3843 77.6538 84.8681 76.6014 85.9304 76.0582C86.6723 75.6847 88.8307 74.9548 88.915 75.0567C88.9318 75.0906 89.1173 75.481 89.3028 75.9224C89.5726 76.5165 89.6063 76.7541 89.4546 76.8051C89.3365 76.839 88.5777 77.0257 87.7346 77.2294C83.2494 78.2649 76.9598 81.1336 73.2333 83.8496C70.7884 85.6489 68.141 88.3649 68.4951 88.7213C68.5626 88.7892 70.0633 88.5855 71.8507 88.28C73.638 87.9575 76.083 87.5161 77.2802 87.3124C80.7706 86.7013 83.047 86.5146 86.1159 86.6165C88.8981 86.7013 89.6738 86.8032 89.6738 87.0918C89.6738 87.4143 87.3468 89.1287 86.0316 89.7907C83.9576 90.7922 80.6189 91.641 77.5837 91.9126C75.7626 92.0654 72.4071 91.641 71.0919 91.0638C70.4343 90.7922 70.8221 91.5391 71.8844 92.5746C73.7055 94.3909 77.2971 95.9186 82.069 96.9032C85.4414 97.6161 90.7192 97.65 94.5638 96.988C97.2954 96.5297 100.516 95.3415 102.421 94.1193C103.214 93.5931 103.484 93.5252 104.411 93.5252C105.558 93.5252 107.699 93.0329 108.593 92.5746C108.896 92.4218 109.655 91.7768 110.262 91.1657C111.223 90.1981 111.409 89.8756 111.763 88.8062C112.319 87.0408 112.201 85.2585 111.392 83.3743L110.802 82.0163L111.527 81.6768C114.275 80.3358 114.95 77.4841 113.196 74.6832C112.96 74.2928 112.775 73.9533 112.808 73.9194C112.842 73.8854 113.163 73.9194 113.533 73.9873L114.208 74.0891L114.326 75.5829C114.444 77.2973 114.866 78.3158 115.742 79.0967C116.316 79.6059 116.333 79.6229 116.231 80.5904C116.029 82.4407 116.906 84.7662 118.643 86.922C119.638 88.1612 120.936 89.2645 121.138 89.0608C121.206 89.0099 121.054 88.246 120.818 87.3803C120.143 84.9869 120.008 83.8835 119.857 80.3698C119.722 76.9409 119.536 76.0582 118.407 73.8005C118.187 73.3592 118.002 72.9688 118.002 72.9348C118.002 72.8839 118.474 72.7651 119.047 72.6463C119.621 72.5444 120.379 72.2898 120.734 72.12L121.374 71.7975L122.352 72.7821C122.892 73.3253 123.566 73.8684 123.87 73.9873C124.241 74.14 124.393 74.3098 124.342 74.4965C123.937 75.9733 124.157 78.1121 124.848 79.4871C126.079 81.9145 129.637 84.0533 132.891 84.3079C133.97 84.3928 134.223 84.3588 134.156 84.1891C134.122 84.0703 133.228 83.4422 132.183 82.8141C130.261 81.6429 129.013 80.7262 128.338 79.9963C128.001 79.6059 127.984 79.4531 128.069 78.0782C128.136 77.1785 128.085 76.16 127.967 75.5489C127.849 74.9888 127.748 74.0721 127.714 73.5459C127.681 72.7821 127.495 72.2219 126.905 71.0337C125.758 68.7421 125.758 68.81 126.72 68.6742C127.158 68.6063 127.816 68.4705 128.17 68.3686C128.76 68.1819 128.827 68.1989 129.401 68.793C129.721 69.1155 130.227 69.489 130.48 69.5908L130.969 69.7945L130.868 71.3562C130.648 74.8021 132.014 77.2464 135.218 79.1476C136.483 79.8945 138.557 80.5904 139.939 80.7432C141.052 80.862 141.238 80.6583 140.479 80.1661C138.776 79.1136 137.039 77.8575 136.162 77.0597L135.151 76.1261L135.37 74.6663C135.656 72.7651 135.521 69.7606 135.117 68.759C134.948 68.3517 134.628 67.8254 134.409 67.5878C134.206 67.3501 134.021 67.1125 134.021 67.0276C134.021 66.9597 133.262 66.077 132.335 65.0586C131.407 64.057 130.648 63.1744 130.648 63.0895C130.648 63.0216 130.952 62.9707 131.323 62.9707C132.115 62.9707 133.093 62.5972 133.633 62.105L133.987 61.7485L134.442 62.716C134.864 63.5818 135.218 63.9552 136.432 64.753C136.651 64.8888 136.668 65.0755 136.516 65.8903C136.28 67.1295 136.55 68.81 137.208 70.2189C137.916 71.6787 139.788 73.3253 141.895 74.2928C142.755 74.7002 142.958 74.7172 144.441 74.6323C146.886 74.4795 146.954 74.0212 144.661 73.2404C142.941 72.6632 141.524 71.8145 141.541 71.3732C141.558 71.1864 141.659 70.4226 141.777 69.6927C142.131 67.2313 141.609 64.8549 140.327 63.1913C139.922 62.6651 138.742 61.3411 137.73 60.2377C135.572 57.9122 135.033 57.6067 133.313 57.7594C132.722 57.8103 132.099 57.8952 131.896 57.9631C131.559 58.065 131.542 57.9971 131.424 56.707C131.323 55.5018 131.357 55.2472 131.677 54.6361C132.267 53.4478 132.503 52.4294 132.503 50.9526C132.503 49.8492 132.571 49.4248 132.807 49.0853C133.346 48.3215 133.97 46.8107 134.24 45.6564C134.847 43.1442 134.78 41.3618 133.936 38.4422C133.549 37.1012 133.515 36.8296 133.684 36.1506C133.802 35.7262 133.92 34.504 133.97 33.4346C134.055 31.8051 134.004 31.2449 133.717 30.0736C133.296 28.4101 132.706 27.171 131.829 26.1355C131.137 25.2868 130.8 24.1495 130.48 21.3826C130.362 20.3641 130.159 19.6342 129.805 18.9212C129.215 17.75 128.945 17.4105 127.445 16.0865C126.568 15.3226 126.281 14.9492 126.028 14.2192C125.843 13.727 125.387 12.6745 125 11.8767C123.735 9.31355 121.408 7.58212 118.626 7.1238C117.951 7.00498 117.344 6.85221 117.243 6.78431C117.159 6.71642 116.316 6.27507 115.388 5.79977C113.061 4.62852 112.05 4.35693 109.824 4.33995C108.155 4.32298 107.868 4.37389 107.042 4.76431C106.536 5.00196 105.76 5.56213 105.339 6.00347C104.647 6.73338 104.394 6.85221 102.978 7.24263C101.005 7.76884 99.6392 7.8028 98.5769 7.32751C97.4809 6.83524 95.6092 5.56213 94.9179 4.84919C94.5975 4.5097 94.2602 4.23811 94.1928 4.23811C94.1253 4.23811 94.0579 4.64549 94.0579 5.15473ZM113.196 5.76583C114.36 6.22414 116.467 7.49725 116.181 7.5991C116.08 7.63304 115.388 7.4633 114.63 7.22565C112.724 6.61456 111.156 6.39389 109.065 6.47877C107.716 6.51271 107.16 6.61456 106.822 6.83524C106.569 7.00498 106.367 7.05591 106.367 6.98801C106.367 6.64851 107.143 5.86768 107.784 5.56213C108.778 5.10381 111.746 5.20567 113.196 5.76583ZM104.512 8.29506C104.512 8.36296 103.939 8.60061 103.231 8.82128C102.219 9.10985 101.663 9.17774 100.651 9.12682C99.9427 9.09287 99.2177 8.95708 99.0322 8.85523C98.7624 8.70245 98.9479 8.65154 100.044 8.63456C100.786 8.61758 101.882 8.51573 102.489 8.3969C103.855 8.14229 104.512 8.10834 104.512 8.29506ZM120.632 8.99103C122.757 9.95859 123.954 11.1468 124.409 12.7424C124.561 13.2517 124.477 13.2008 123.263 11.9956C122.082 10.8243 120.582 9.53422 119.503 8.78733C118.862 8.32901 119.418 8.43086 120.632 8.99103ZM126.011 15.9337C128.018 17.088 129.097 18.8024 129.535 21.4675C130.092 24.8624 130.126 24.6247 129.08 24.1834C128.541 23.9627 128.423 23.793 128.136 22.8764C127.58 21.128 127.377 20.6357 126.972 20.0755C126.703 19.6851 126.652 19.5154 126.804 19.4644C126.956 19.3965 126.939 19.3626 126.77 19.3626C126.635 19.3456 126.416 19.1759 126.281 18.9552C126.113 18.6666 126.096 18.6327 126.281 18.7854C126.534 19.0401 126.838 19.074 126.703 18.8533C126.635 18.7685 126.669 18.4799 126.77 18.2423C126.922 17.8349 126.871 17.6821 126.483 17.1559C126.231 16.8164 125.775 16.2902 125.472 15.9846C124.78 15.3056 124.915 15.3056 126.011 15.9337ZM126.652 17.9367C126.534 17.9876 126.5 18.1404 126.551 18.2932C126.618 18.5138 126.602 18.5308 126.45 18.395C126.214 18.1744 126.399 17.5972 126.652 17.767C126.787 17.8518 126.787 17.9028 126.652 17.9367ZM120.767 18.2423C120.835 18.5138 120.953 18.6327 121.071 18.5648C121.189 18.4799 121.206 18.5139 121.121 18.6497C120.986 18.8873 121.357 19.719 121.56 19.6002C121.627 19.5493 121.644 19.6851 121.594 19.8888C121.543 20.1774 121.56 20.2113 121.678 20.0585C121.779 19.8888 121.863 20.0416 121.914 20.5678C122.083 21.9597 123.128 23.6232 124.409 24.489C124.713 24.7096 124.764 24.8284 124.629 24.9642C124.038 25.5584 121.526 23.3177 120.885 21.6372C120.464 20.5169 120.194 17.8179 120.481 17.8179C120.582 17.8179 120.717 18.0046 120.767 18.2423ZM125.876 18.0725C125.876 18.2083 125.809 18.3271 125.725 18.3271C125.556 18.3271 125.539 18.0895 125.708 17.9367C125.86 17.767 125.876 17.7839 125.876 18.0725ZM129.485 25.6432C130.632 26.2204 131.964 27.6293 132.621 28.9873C133.077 29.9209 133.093 30.0567 133.077 32.3313C133.077 33.6383 132.992 34.8775 132.908 35.0982C132.739 35.4716 132.722 35.4546 132.25 34.5889C130.851 31.9409 130.345 31.2619 128.305 29.2079C127.141 28.0536 126.163 27.1879 126.146 27.2728C125.994 27.7311 126.956 31.3128 127.512 32.3652C127.849 32.9933 128.102 33.5025 128.069 33.5195C128.052 33.5365 127.58 33.6383 127.023 33.7572C125.809 33.9948 125.826 34.0118 125.067 32.0257C124.409 30.2943 124.19 29.0212 124.325 27.833C124.561 25.9148 125.135 25.2698 126.77 25.1C127.95 24.9812 128.321 25.0491 129.485 25.6432ZM130.244 35.3867C131.694 36.3034 132.469 37.1521 133.161 38.595C134.24 40.8696 134.274 42.4991 133.262 45.5885C132.402 48.2366 132.233 48.3045 132.217 46.0469C132.217 42.8896 131.576 41.1412 129.283 38.0687C128.642 37.203 128.119 36.4052 128.119 36.2864C128.119 35.896 127.832 36.4052 127.445 37.4916C126.989 38.7986 125.758 40.9375 125.033 41.7183C124.527 42.2445 123.6 42.8726 123.482 42.7368C123.465 42.7028 123.583 41.8032 123.769 40.7338C124.359 37.1182 125.354 35.3188 127.023 34.8775C128.473 34.4871 128.912 34.555 130.244 35.3867ZM127.849 43.7892C128.187 44.0269 128.692 44.5531 128.962 44.9435C129.434 45.6564 130.244 47.8122 130.109 47.948C130.075 47.999 129.552 47.7613 128.945 47.4388C128.338 47.1163 127.394 46.7428 126.854 46.59C125.101 46.1317 121.796 46.3015 120.143 46.9296C119.806 47.0653 119.435 47.1842 119.351 47.1842C119.03 47.1842 119.654 46.2675 120.481 45.4867C121.745 44.2815 121.948 44.1287 123.01 43.6874C123.853 43.3309 124.207 43.28 125.607 43.3139C127.006 43.3649 127.293 43.4158 127.849 43.7892ZM123.145 47.3709C125.219 47.7613 127.074 49.1702 127.934 51.0205C128.321 51.8522 128.321 52.1068 127.917 51.7164C127.478 51.2581 125.404 49.9001 124.612 49.5437C124.19 49.34 122.926 48.9665 121.796 48.6949C120.683 48.4233 119.553 48.1348 119.267 48.0499L118.761 47.9141L119.267 47.6934C120.497 47.1672 121.577 47.0823 123.145 47.3709ZM122.066 49.2721C124.123 49.9341 125.489 51.0884 126.972 53.4648C127.782 54.7209 128.676 56.5372 128.558 56.6561C128.507 56.707 128.102 56.4014 127.664 55.9941C124.527 53.0574 119.165 50.0699 117.058 50.0699C116.754 50.0699 116.467 50.002 116.417 49.9171C116.316 49.7643 117.159 49.0514 117.665 48.8307C118.187 48.5931 120.801 48.8647 122.066 49.2721ZM117.412 50.7489C118.626 50.9526 120.514 51.8522 121.509 52.701C122.706 53.7364 124.106 56.028 124.764 58.048L125.067 58.9816L124.629 58.3875C123.819 57.3351 121.475 55.0774 120.497 54.4324C119.3 53.6346 117.496 52.7179 116.417 52.3615C115.405 52.0389 113.078 51.6994 112.505 51.8183C111.847 51.9371 112.05 51.5976 112.859 51.2411C114.107 50.681 115.86 50.4942 117.412 50.7489ZM114.478 52.684C116.046 52.9725 117.682 53.7534 118.643 54.704C120.143 56.1808 121.678 59.6945 121.813 61.9522C121.88 62.9028 121.863 62.9876 121.695 62.6312C120.329 59.7455 119.874 59.0835 117.901 57.2162C116.417 55.7904 115 54.7549 113.955 54.2796C112.437 53.6176 112.134 53.5497 110.296 53.5497C109.251 53.5497 108.391 53.5327 108.391 53.5157C108.391 53.363 110.566 52.7179 111.426 52.6161C112.994 52.4294 113.061 52.4294 114.478 52.684ZM106.097 52.9556C106.536 53.1083 106.704 53.4648 106.35 53.4648C106.249 53.4648 105.946 53.6176 105.676 53.8213C104.883 54.3984 103.754 54.3136 102.708 53.6176C102.219 53.2951 101.814 52.9895 101.814 52.9047C101.814 52.7179 105.591 52.7519 106.097 52.9556ZM100.061 53.5497C100.128 53.6855 100.111 54.0759 100.061 54.4154C99.9596 54.8737 99.8247 55.0604 99.4031 55.2472C98.8298 55.4848 98.5095 55.4169 98.7455 55.1114C98.8298 54.9925 98.9985 54.6361 99.1165 54.3136C99.5043 53.312 99.8584 53.0235 100.061 53.5497ZM101.831 53.8383C102.202 54.042 102.489 54.2457 102.489 54.3136C102.489 54.3645 102.202 54.5173 101.865 54.653C101.511 54.7888 101.174 54.9246 101.106 54.9586C101.022 54.9925 100.971 54.67 100.971 54.2457C100.971 53.8213 101.022 53.4648 101.072 53.4648C101.14 53.4648 101.477 53.6346 101.831 53.8383ZM98.442 54.3136C98.1216 54.5852 97.5483 55.0604 97.1942 55.366C96.0813 56.2996 94.2265 57.2502 94.2265 56.8767C94.2265 56.4863 95.4743 55.1793 96.2499 54.7549C97.9699 53.8043 99.3694 53.5327 98.442 54.3136ZM112.117 54.1099C114.393 54.7209 116.299 56.3505 117.597 58.8458C118.204 59.9661 119.182 62.4105 119.182 62.75C119.182 62.8179 118.896 62.5293 118.558 62.105C117.311 60.6282 114.798 58.2177 113.584 57.369C111.712 56.028 109.116 54.9416 106.89 54.5682C106.249 54.4663 106.182 54.4154 106.468 54.2626C107.278 53.8043 110.583 53.7194 112.117 54.1099ZM107.547 55.0944C108.795 55.4509 110.768 56.5372 112.05 57.5727C113.77 58.9816 115.118 61.2392 115.742 63.7515L116.029 64.8888L115.54 65.2792L115.051 65.6696L114.596 64.6681C113.517 62.2577 111.375 59.6436 109.318 58.2177C107.632 57.0465 104.917 55.8583 103.113 55.5018C102.573 55.383 102.152 55.2641 102.185 55.2302C102.236 55.1962 102.708 55.0604 103.265 54.9077C104.411 54.6191 106.114 54.704 107.547 55.0944ZM91.1914 56.1638C91.1914 56.673 90.5843 57.7085 89.9098 58.3535C89.6906 58.5742 89.5052 58.727 89.5052 58.693C89.522 58.5742 90.618 55.9092 90.7361 55.7055C90.9553 55.383 91.1914 55.6376 91.1914 56.1638ZM89.9773 55.8752C89.9267 55.9941 89.6401 56.1299 89.3197 56.1978C88.9993 56.2487 88.5777 56.3845 88.3585 56.5033C87.8695 56.7749 86.9421 58.2177 86.5374 59.355C86.3688 59.8473 86.099 60.4245 85.9304 60.6282C85.6438 61.0186 85.6269 61.0016 85.7281 60.1698C85.9304 58.3875 86.2508 57.6067 87.0939 56.8767C88.055 56.011 90.1628 55.2811 89.9773 55.8752ZM102.944 56.1129C105.102 56.5542 107.716 58.1159 109.082 59.7794C110.262 61.2053 111.594 63.3102 111.341 63.3102C111.274 63.3102 110.768 62.9707 110.195 62.5633C106.468 59.8982 103.45 58.8458 98.9479 58.6251C96.975 58.5233 94.1253 58.7949 93.1642 59.1514C93.0124 59.2193 92.8776 59.2023 92.8776 59.1004C92.8776 58.8967 94.7661 57.6746 95.4912 57.403C95.7778 57.3011 96.486 57.0125 97.0762 56.7749C98.2228 56.2826 99.9764 55.8752 101.022 55.8583C101.376 55.8413 102.236 55.9601 102.944 56.1129ZM82.4231 58.031C82.5074 58.2177 82.5917 58.5233 82.5917 58.71C82.5917 59.0665 80.8381 61.0865 80.6695 60.9167C80.6189 60.8658 80.8718 60.1868 81.2428 59.423C81.6138 58.6591 81.9173 57.9631 81.9173 57.8783C81.9173 57.5897 82.2376 57.6915 82.4231 58.031ZM81.2428 58.1668C81.2428 58.71 81.0067 58.8119 79.9444 58.8458C78.7641 58.8628 78.157 59.1514 77.2128 60.1529C76.6395 60.747 76.083 60.9676 76.2179 60.5433C76.3191 60.2547 77.8198 59.1344 78.6798 58.71C79.2868 58.4045 80.6695 57.9461 81.1247 57.8952C81.1922 57.8783 81.2428 58.014 81.2428 58.1668ZM136.533 60.0171C137.241 60.764 138.118 61.8673 138.455 62.4445C139.164 63.6497 139.147 63.6497 137.427 62.8688C136.23 62.3256 135.252 61.5448 134.881 60.7809C134.51 60.051 134.021 58.4554 134.122 58.3366C134.375 58.0989 135.403 58.8119 136.533 60.0171ZM133.397 59.3211C133.346 60.9846 132.284 61.6127 130.126 61.2562C129.013 61.0865 128.743 61.0865 128.035 61.3241C126.939 61.6976 126.72 61.6976 126.922 61.3071C127.259 60.6621 128.22 59.8982 129.114 59.5587C130.227 59.1344 133.026 58.4045 133.262 58.4724C133.363 58.4893 133.414 58.8798 133.397 59.3211ZM99.7066 59.7455C101.191 60.1019 103.703 61.0695 104.782 61.6976C105.457 62.105 106.536 63.1744 106.536 63.4629C106.536 63.7006 103.248 64.8379 101.578 65.1774C97.7001 65.9752 88.7126 66.2298 85.6269 65.6357C84.7501 65.466 83.9576 65.2623 83.8901 65.1944C83.8058 65.1095 84.0756 64.8209 84.4803 64.5323C84.8681 64.2438 85.5089 63.7345 85.8798 63.395C89.6232 59.9831 94.9347 58.5912 99.7066 59.7455ZM89.1848 59.5757C89.3534 59.6776 89.5052 59.8473 89.5052 59.9661C89.5052 60.1359 88.4766 60.9337 88.2405 60.9337C88.1225 60.9337 88.1393 59.6436 88.2742 59.5248C88.426 59.355 88.797 59.372 89.1848 59.5757ZM76.0156 61.3581C76.1842 61.5787 76.1673 61.6806 75.9144 62.0031C75.4423 62.5802 75.1387 62.8009 74.987 62.6991C74.7509 62.5633 74.8015 62.2577 75.1725 61.6466C75.5434 61.0355 75.7121 60.9846 76.0156 61.3581ZM79.8938 61.2732C79.8938 61.3581 80.1299 61.4429 80.3997 61.4429C80.8887 61.4429 80.9055 61.4599 80.9055 62.2577C80.9055 62.7839 81.0404 63.3611 81.3102 63.8703C81.5126 64.3117 81.6643 64.6851 81.6306 64.7191C81.5969 64.753 81.2091 64.6172 80.7706 64.3965C80.3322 64.1759 79.4217 63.8364 78.7641 63.6157C78.0896 63.412 77.5331 63.1913 77.5331 63.1404C77.5331 63.0895 77.9378 62.6142 78.4437 62.071C79.2531 61.1883 79.8938 60.8319 79.8938 61.2732ZM81.8161 61.7315C81.8667 61.9013 81.951 62.4105 82.0184 62.8858C82.1027 63.5478 82.0859 63.6836 81.9173 63.5478C81.6306 63.2592 81.2765 62.1219 81.3608 61.7655C81.4789 61.3581 81.6981 61.3581 81.8161 61.7315ZM127.95 62.5463C127.95 62.7839 126.602 63.9891 126.315 63.9891C125.691 63.9891 124.022 64.5154 123.533 64.8549C123.162 65.1265 122.909 65.1774 122.47 65.1095C122.15 65.0416 121.88 64.9228 121.88 64.8549C121.88 64.6002 123.077 63.7854 123.971 63.429C125.809 62.6991 127.95 62.2238 127.95 62.5463ZM129.772 63.1234C130.497 63.7006 132.672 66.1789 132.672 66.4335C132.672 66.4844 132.908 66.8749 133.195 67.3162C133.818 68.2328 133.7 68.4196 132.554 68.3347C131.306 68.2328 128.709 66.3826 128.305 65.2792C128.018 64.5323 128.069 63.1913 128.406 62.8009C128.574 62.6142 128.76 62.4614 128.81 62.4614C128.878 62.4614 129.316 62.767 129.772 63.1234ZM69.1865 63.3611V64.0061L67.7532 64.6172C66.2188 65.2792 64.6337 66.2638 63.7569 67.0955L63.2173 67.6048L62.3911 66.8409C61.9358 66.4165 61.3962 66.0091 61.1939 65.9412C60.8735 65.8394 60.8567 65.7885 61.0421 65.5508C61.3625 65.1604 63.386 63.8703 64.3302 63.4629C65.5949 62.9197 66.8932 62.6481 68.0904 62.6821L69.1865 62.716V63.3611ZM76.4203 64.074C77.2802 64.3117 80.2142 65.4999 81.4789 66.1449L81.9678 66.3996L81.2596 66.7391C79.8264 67.4011 78.5111 67.6217 77.0779 67.435C75.0713 67.1634 73.4357 66.4505 72.3228 65.3641L71.3954 64.4644L71.8169 64.1419C72.1373 63.8873 72.5251 63.8194 73.8235 63.8194C74.7341 63.8194 75.8638 63.9382 76.4203 64.074ZM140.479 65.2962C140.917 66.2977 141.137 67.5538 141.002 68.3177L140.867 68.9967L140.749 67.9103C140.597 66.6372 140.142 66.0601 138.978 65.5678L138.236 65.2623L139.046 64.9907C140.175 64.6002 140.175 64.6002 140.479 65.2962ZM54.8201 65.2623C55.6126 65.398 56.4388 65.5848 56.658 65.6696C58.8838 66.5354 59.6257 66.9767 60.2159 67.7575C60.9578 68.7421 60.9578 68.7421 58.6477 68.81C55.6632 68.9118 53.0833 69.6078 49.8795 71.1864C47.5188 72.3577 42.9998 75.1076 43.1853 75.2943C43.219 75.3283 43.9272 75.2094 44.7535 75.0227C46.2542 74.6832 48.1933 74.5644 48.1933 74.8021C48.1933 74.8869 47.7212 75.1585 47.131 75.4301C44.9558 76.4486 43.0673 78.4177 42.5277 80.2509C41.9881 82.0333 42.3591 84.936 43.3371 86.5316C43.5225 86.8371 43.6406 87.1257 43.59 87.1766C43.472 87.3124 41.1281 86.0902 40.3525 85.4961C38.7675 84.257 37.5871 82.5595 37.0307 80.7432C35.8335 76.7711 38.2785 71.475 42.8649 68.0631C45.3057 66.5142 44.3673 67.0132 45.782 66.3486C48.5062 65.1021 51.8869 64.7435 54.8201 65.2623ZM121.003 65.6357C120.953 65.7206 120.818 66.0091 120.7 66.3147L120.464 66.8409L118.508 66.9088C116.619 66.9597 116.501 66.9767 115.641 67.5199C115.152 67.8254 114.731 68.0461 114.697 68.0122C114.562 67.8933 115.287 66.6033 115.692 66.2298C115.911 66.0091 116.316 65.7715 116.585 65.6866C117.193 65.5169 121.088 65.466 121.003 65.6357ZM122.487 66.2128C123.836 67.0446 125.809 69.8624 126.197 71.492C126.298 71.9163 126.264 71.9503 125.809 71.8654C124.646 71.6617 123.802 71.4241 123.28 71.1864C121.964 70.5414 120.953 68.0461 121.391 66.5354C121.627 65.7545 121.712 65.7206 122.487 66.2128ZM84.1599 67.0786C85.0873 68.0122 86.6218 68.8269 88.0887 69.1834C89.2522 69.455 90.1291 69.455 94.0242 69.1495C94.901 69.0816 95.4068 69.0985 95.4068 69.2004C95.4068 69.3022 95.0865 69.6757 94.6818 70.0491C93.8555 70.813 92.5572 71.3562 90.6855 71.7296C88.6452 72.137 86.8578 72.6293 85.9304 73.0706C85.4583 73.2913 85.003 73.4441 84.9524 73.4101C84.885 73.3762 84.9018 72.9688 84.9693 72.5274C85.0367 72.0861 85.1042 71.2034 85.1042 70.5584C85.121 69.2174 85.0873 69.2174 83.654 69.8624C82.5749 70.3547 79.7252 70.6602 79.7252 70.3037C79.7252 69.9303 81.3777 67.9612 82.3557 67.1804C82.8953 66.756 83.3674 66.3826 83.4011 66.3826C83.418 66.3656 83.7721 66.6881 84.1599 67.0786ZM112.775 69.3362C113.635 69.438 114.984 70.0491 115.709 70.6432C116.299 71.1355 116.248 71.6617 115.54 72.3577C114.849 73.0537 114.259 72.9688 113.23 72.0352C111.999 70.9148 111.19 70.5414 109.992 70.5414C109.436 70.5244 108.677 70.5923 108.323 70.6602L107.666 70.813L107.918 70.4056C108.323 69.7945 109.217 69.3532 110.245 69.2343C111.173 69.1495 111.325 69.1495 112.775 69.3362ZM134.662 69.5059C134.611 69.7606 134.645 69.8794 134.746 69.8115C134.982 69.6757 134.796 73.8345 134.56 74.2758C134.375 74.5814 134.375 74.5644 134.358 74.174C134.358 73.7666 133.65 70.796 133.431 70.2528C133.363 70.0491 133.464 69.9133 133.835 69.7775C134.105 69.6587 134.375 69.455 134.425 69.3192C134.577 68.9288 134.746 69.0476 134.662 69.5059ZM106.333 71.2204C107.278 71.492 108.391 72.171 108.391 72.4935C108.391 72.5784 108.003 72.6463 107.531 72.6463C106.586 72.6463 104.9 73.0367 104.091 73.4441C103.821 73.5799 103.197 74.0891 102.725 74.5474L101.848 75.3962L100.651 75.1076C99.3526 74.7851 99.3863 74.836 99.8078 73.7157C100.061 73.0367 101.342 71.7975 102.219 71.3732C103.265 70.8639 104.9 70.813 106.333 71.2204ZM79.8601 71.9503C79.9276 71.9673 79.3374 72.2389 78.5617 72.5444C77.7861 72.8669 76.7575 73.3931 76.2854 73.7326C75.8301 74.0552 75.4085 74.2928 75.3748 74.2589C75.2736 74.157 76.1167 73.1725 76.6563 72.7481C77.4151 72.137 78.899 71.7636 79.8601 71.9503ZM142.519 73.2574C142.856 73.3422 142.924 73.4101 142.755 73.512C142.452 73.7157 142.249 73.6987 142.367 73.478C142.435 73.3762 142.367 73.3252 142.199 73.3592C142.013 73.3931 141.845 73.2574 141.76 72.9858C141.626 72.6123 141.642 72.5953 141.828 72.85C141.946 73.0027 142.266 73.1895 142.519 73.2574ZM108.981 73.512C111.122 73.9024 112.606 75.1076 113.011 76.7541C113.146 77.3143 113.179 77.3143 111.341 76.9748C109.773 76.6862 108.087 76.6523 107.463 76.8899C107.058 77.0427 107.042 77.1106 107.126 77.7387C107.177 78.1121 107.177 78.4177 107.109 78.4177C107.058 78.4177 106.721 78.18 106.367 77.9084C106.013 77.6199 105.052 77.0427 104.226 76.6014C103.416 76.177 102.708 75.7866 102.674 75.7526C102.506 75.6168 103.669 74.7511 104.613 74.3098C105.423 73.9194 106.974 73.461 107.902 73.3422C107.952 73.3253 108.441 73.4101 108.981 73.512ZM61.8515 74.6153C61.3457 75.1246 60.7892 75.6338 60.6037 75.7357C60.4351 75.8205 60.8229 75.3962 61.4468 74.7851C62.8632 73.4271 63.0993 73.3253 61.8515 74.6153ZM117.344 76.0752C117.344 77.6029 117.193 78.4346 116.855 78.6553C116.451 78.9099 115.068 76.6183 114.866 75.3962L114.764 74.7342L115.574 74.8021C116.299 74.87 116.451 74.819 116.737 74.4626C117.209 73.8684 117.327 74.174 117.344 76.0752ZM127.276 77.0597C127.276 78.18 127.209 79.0967 127.124 79.0967C126.871 79.0967 126.416 77.6199 126.315 76.4146C126.214 75.1246 126.146 75.2264 127.158 75.0397C127.225 75.0397 127.276 75.9394 127.276 77.0597ZM100.904 77.0767C104.563 78.0273 107.16 80.2 107.8 82.8311C107.918 83.3064 108.509 83.1197 102.489 84.4437C98.4251 85.3434 95.4912 86.4467 93.4677 87.8386C93.1136 88.0763 92.7764 88.263 92.7258 88.263C92.6752 88.263 92.6246 87.5161 92.6078 86.5995C92.6078 84.6134 92.3548 84.0193 91.3262 83.4931C89.9098 82.7632 86.1665 82.8141 82.6423 83.595C79.135 84.3758 72.9636 86.1242 72.1205 86.5825C71.9181 86.6844 71.8001 86.6844 71.8001 86.5825C71.8001 86.3788 74.5823 84.274 76.0156 83.3913C78.1233 82.1182 81.2428 80.6074 83.9407 79.6059C85.4246 79.0457 86.7567 78.5874 86.9084 78.5874C87.0433 78.5874 87.3131 78.5195 87.4817 78.4177C87.6503 78.3328 88.797 78.0273 90.0447 77.7387C94.7492 76.6862 98.5263 76.4486 100.904 77.0767ZM135.37 77.6368C135.37 77.7726 135.521 77.9254 135.707 77.9933C135.892 78.0442 136.027 78.197 135.994 78.2988C135.977 78.4177 136.061 78.4856 136.179 78.4516C136.314 78.4346 136.365 78.4856 136.297 78.5874C136.145 78.8251 135.471 78.3328 135.235 77.8236C135.117 77.5689 135.1 77.3992 135.201 77.3992C135.302 77.3992 135.37 77.501 135.37 77.6368ZM136.904 78.876C137.107 79.1476 137.107 79.1646 136.87 78.9778C136.719 78.859 136.533 78.8251 136.466 78.893C136.381 78.9609 136.381 78.9099 136.449 78.7911C136.601 78.5195 136.634 78.5365 136.904 78.876ZM117.53 80.2849C117.429 80.5565 117.294 81.2694 117.226 81.8635C117.125 82.6953 117.074 82.8311 116.973 82.4916C116.906 82.254 116.855 81.5919 116.838 80.9978C116.822 80.0472 116.855 79.9114 117.209 79.7926C117.698 79.6059 117.732 79.6568 117.53 80.2849ZM130.564 82.9669C130.446 83.0857 129.333 82.4237 129.165 82.1351C129.013 81.8975 129.181 81.9654 129.788 82.3558C130.244 82.6614 130.598 82.9329 130.564 82.9669ZM110.684 84.3928C111.139 85.9205 111.105 88.28 110.633 89.1966C110.262 89.8926 109.47 90.7243 108.728 91.1827C108.222 91.4882 106.35 92.2012 106.266 92.1163C106.232 92.0823 106.688 91.5731 107.278 90.962C108.93 89.2475 110.077 86.4297 110.077 84.0193C110.077 83.0348 110.33 83.1876 110.684 84.3928ZM89.5052 90.4528C89.5052 91.5731 89.4883 91.624 89.0499 91.7938C88.055 92.1672 86.8241 92.5067 85.121 92.8632C82.9121 93.3215 78.5111 93.4064 76.5214 93.0159L75.2568 92.7783L77.7018 92.6595C81.9678 92.4727 85.4246 91.5901 88.0044 90.0454C88.6958 89.638 89.3028 89.2985 89.3871 89.2985C89.4546 89.2815 89.5052 89.8077 89.5052 90.4528Z" fill="white"/>
<path d="M127.006 18.5138C126.939 18.6327 126.956 18.6666 127.074 18.5987C127.158 18.5478 127.293 18.5987 127.327 18.7006C127.394 18.8533 127.428 18.8703 127.428 18.7175C127.445 18.429 127.158 18.2932 127.006 18.5138Z" fill="white"/>
<path d="M127.495 19.2947C127.495 19.4814 127.613 19.6342 127.731 19.6342C127.9 19.6342 127.9 19.5663 127.748 19.3626C127.63 19.2098 127.529 19.057 127.495 19.0231C127.478 18.9891 127.478 19.1079 127.495 19.2947Z" fill="white"/>
<path d="M127.883 20.3132C127.782 20.5508 127.799 20.5678 127.967 20.415C128.086 20.2962 128.136 20.1604 128.086 20.1095C128.035 20.0586 127.934 20.1434 127.883 20.3132Z" fill="white"/>
<path d="M128.136 20.9751C128.136 21.1618 128.187 21.2128 128.237 21.077C128.288 20.9581 128.271 20.8054 128.22 20.7544C128.17 20.6865 128.119 20.7884 128.136 20.9751Z" fill="white"/>
<path d="M137.579 61.9013C137.697 62.1049 137.832 62.2407 137.882 62.1898C137.933 62.1559 137.832 61.9861 137.663 61.8164C137.376 61.5448 137.359 61.5448 137.579 61.9013Z" fill="white"/>
<path d="M112.488 14.7115L112.1 14.7794L112.066 28.8175L112.016 42.8556L110.077 43.2291C109.014 43.4328 108.003 43.6025 107.834 43.6025C107.531 43.6195 107.531 43.1102 107.581 30.3962L107.632 17.1728L108.289 16.2223C108.643 15.696 108.913 15.2377 108.88 15.1868C108.846 15.1529 108.273 15.2717 107.632 15.4584C106.974 15.6451 105.541 15.9337 104.428 16.0865L102.405 16.392L102.472 31.4825C102.539 48.7119 102.438 47.5916 103.939 48.4743C105.339 49.306 106.856 49.2042 111.999 47.9311C114.798 47.2521 115.489 46.7598 116.535 44.7398L117.074 43.7044L117.125 31.0072L117.159 18.2932L116.231 17.2747C115.709 16.7145 115.102 15.8828 114.882 15.4244C114.461 14.5927 114.444 14.5927 113.651 14.6097C113.213 14.6266 112.69 14.6776 112.488 14.7115Z" fill="white"/>
<path d="M82.2713 15.8149L77.1453 16.8673L77.2633 36.1336C77.3139 46.7259 77.3982 55.4169 77.4151 55.4339C77.4488 55.4679 81.7992 54.5343 82.2882 54.3815C82.558 54.2966 82.5917 53.7704 82.6254 47.1333L82.676 39.9869L85.3233 39.4437C88.3248 38.8156 88.9824 38.5271 89.9604 37.4577C91.6634 35.5905 91.7309 35.1831 91.6634 25.3717L91.6128 17.3935L91.1913 16.6297C90.9552 16.2223 90.4662 15.6621 90.0784 15.3905C88.9149 14.5757 88.1393 14.6097 82.2713 15.8149ZM86.3013 27.154C86.3013 30.8885 86.2676 33.9439 86.217 33.9439C86.1664 33.9439 85.4076 34.0967 84.5139 34.3004C83.6203 34.4871 82.8446 34.6059 82.794 34.538C82.6254 34.3852 82.5748 21.5184 82.7266 21.2808C82.8278 21.128 85.3065 20.466 86.099 20.3811C86.2507 20.3641 86.3013 21.8239 86.3013 27.154Z" fill="white"/>
<path d="M70.6197 18.2423C67.3148 18.9213 63.0824 19.736 60.806 20.1434L59.1536 20.432V39.936V59.4399L59.5414 59.372C59.7437 59.3211 60.9578 59.0665 62.2393 58.8119L64.5494 58.3366V50.8338V43.3139L65.0721 43.2121C66.5728 42.9235 67.6689 43.3139 68.2928 44.4003C68.5625 44.8586 68.5963 45.4867 68.5963 51.0544C68.6131 54.4324 68.6637 57.2163 68.7312 57.2672C68.7986 57.3011 69.9958 57.0974 71.3785 56.7919L73.9078 56.2657L73.9584 49.2042L73.9921 42.1257L72.9804 41.1751L71.9518 40.2245L72.4577 39.5965C72.7443 39.24 73.1827 38.4931 73.4357 37.933L73.9078 36.9145L73.9584 31.3977C73.9752 28.3592 74.009 24.0307 74.0427 21.756C74.0764 17.75 74.0764 17.6482 73.7392 17.6651C73.5537 17.6651 72.1542 17.9367 70.6197 18.2423ZM68.5963 30.3113V36.5241L68.1241 36.9824C67.77 37.3558 67.3822 37.5086 66.4885 37.6614C65.8309 37.7802 65.1396 37.916 64.9372 37.9669L64.5494 38.0518V31.4316V24.8115L65.7803 24.5569C66.4379 24.4041 67.1461 24.2513 67.3316 24.2174C67.5171 24.1665 67.8712 24.1325 68.141 24.1155L68.5963 24.0986V30.3113Z" fill="white"/>
<path d="M54.9382 21.3316C54.4323 21.4505 52.156 21.8918 49.8796 22.3162C47.6032 22.7405 45.2425 23.2837 44.6355 23.5214C43.3203 24.0136 42.2917 24.8454 41.6847 25.8978C40.7235 27.5614 40.7573 26.7466 40.7741 45.911C40.7741 55.6036 40.8247 63.5817 40.8584 63.6157C40.8921 63.6666 41.7858 63.4969 42.8313 63.2592C43.8767 63.0216 45.6135 62.6651 46.6758 62.4614C52.9316 61.3071 54.2131 60.6621 55.4272 58.065L55.8656 57.1144L55.9162 43.28C55.933 35.6753 55.933 27.5783 55.9162 25.2868L55.8656 21.111L54.9382 21.3316ZM50.7227 42.0069V56.3505L50.3517 56.4354C49.5592 56.6221 46.4229 57.1992 46.2205 57.1992C46.0519 57.1992 46.0013 54.2117 46.0013 42.8556V28.512L46.3892 28.444C47.8393 28.1385 50.1831 27.7141 50.436 27.6802C50.7058 27.6632 50.7227 28.444 50.7227 42.0069Z" fill="white"/>
<path d="M29.8982 26.3222C26.1885 27.0521 22.9679 27.6971 22.7487 27.748L22.344 27.8499L22.4452 47.6424C22.4958 58.5232 22.5801 67.4519 22.6138 67.4859C22.715 67.5877 37.1151 64.5832 37.4017 64.4134C37.6209 64.2776 37.6378 48.5421 37.4186 48.5421C37.3174 48.5421 36.879 48.9495 36.4237 49.4248C35.9685 49.917 34.8387 51.1562 33.8944 52.1747L32.1745 54.0419V57.0634V60.0679L31.5506 60.2377C30.8593 60.4244 28.1951 60.9336 27.9422 60.9336C27.8579 60.9336 27.8073 54.9415 27.8241 46.5391L27.8747 32.1615L29.308 31.8729C30.1005 31.7201 31.0616 31.5504 31.4663 31.4825L32.1745 31.3806V34.1815V36.9823L34.316 37.6782C35.4963 38.0517 36.6767 38.3742 36.9633 38.4082L37.4692 38.4421L37.486 36.9993C37.5029 36.2014 37.4692 33.163 37.4186 30.2433C37.3512 24.9981 37.3512 24.9472 36.9971 24.9642C36.7947 24.9642 33.6078 25.5753 29.8982 26.3222Z" fill="white"/>
<path d="M15.9027 29.0382C8.97239 30.3792 8.16302 30.5659 7.25247 31.0243C6.07213 31.5844 5.02669 32.6029 4.4028 33.8081L3.93066 34.7078L3.88008 40.1567C3.82949 45.3849 3.84635 45.6395 4.20045 46.5731C4.4028 47.1502 4.82435 47.8123 5.19531 48.1857C5.56627 48.5422 7.42109 49.6455 9.79863 50.9186L13.7949 53.0405V58.4894V63.9383L11.9064 64.3117C10.8609 64.4984 9.83235 64.7191 9.63001 64.77L9.24218 64.8719L9.20846 60.5094L9.15787 56.1469L6.54427 54.8058C5.111 54.0759 3.93066 53.4648 3.89694 53.4648C3.7789 53.4648 3.86321 71.2713 3.98125 71.3392C4.04869 71.3902 6.22389 70.9658 8.82063 70.4226C11.4174 69.8964 14.7729 69.2004 16.2905 68.8949L19.0221 68.3347V59.5588C19.0221 51.36 19.0053 50.7319 18.7018 50.0359C18.2971 49.0514 17.572 48.4573 15.5486 47.3539C14.638 46.8617 12.8338 45.8941 11.5691 45.1982L9.24218 43.925V39.8851V35.862L11.1644 35.4886C14.0984 34.9454 13.7949 34.6738 13.7949 37.8481C13.7949 40.5131 13.7949 40.564 14.1827 40.6489C14.7392 40.7847 18.5669 41.4128 18.8198 41.4128C18.9715 41.4128 19.0221 40.0039 19.0221 34.9624C19.0221 28.9194 19.0053 28.512 18.7355 28.529C18.5669 28.5459 17.3022 28.7666 15.9027 29.0382Z" fill="white"/>
</svg>
