<svg width="165" height="107" viewBox="0 0 165 107" fill="none" xmlns="http://www.w3.org/2000/svg">
<path d="M103.977 1.04946C103.977 1.61304 104.055 2.56529 104.171 3.12887C104.443 4.62525 105.94 7.50142 107.009 8.5897C107.495 9.1144 107.864 9.52252 107.825 9.54195C107.805 9.54195 106.989 9.73628 106.018 9.96948L104.269 10.397V23.5147C104.269 30.7246 104.288 40.5968 104.327 45.4358L104.385 54.2392L105.299 54.1032C106.056 54.006 107.767 53.6562 109.963 53.1509C110.332 53.0538 110.41 52.9177 110.39 52.4125C110.371 52.0627 110.351 42.6374 110.371 31.4242L110.39 11.0772L110.934 11.2132C111.226 11.3104 112.722 11.3687 114.277 11.3493C117.231 11.3298 119.252 10.9606 120.943 10.125C121.584 9.81403 121.992 9.77515 124.052 9.85288C125.762 9.93062 126.753 9.87232 127.647 9.65855C128.541 9.44479 128.891 9.42535 128.949 9.60025C129.804 12.3598 130.368 13.176 132.214 14.2837C133.127 14.8279 133.477 15.1388 133.399 15.3526C133.108 16.1494 133.108 18.0539 133.419 19.2199C134.06 21.6685 135.09 23.0677 137.111 24.1949C137.655 24.5058 138.102 24.7779 138.141 24.7973C138.18 24.8167 138.064 25.3026 137.908 25.8662C137.519 27.1877 137.519 29.3837 137.908 30.7246C138.083 31.3076 138.569 32.4347 138.977 33.2509L139.754 34.7279L139.055 35.8745C138.297 37.1182 137.519 39.3725 137.306 40.9078C137.228 41.4325 137.034 42.4625 136.898 43.1621C136.625 44.3864 136.548 44.4836 135.634 45.0666C134.332 45.9216 132.642 47.6318 131.981 48.7978C131.573 49.5169 131.203 49.8861 130.465 50.2359C129.921 50.508 129.124 51.1104 128.677 51.5962C127.997 52.3153 127.744 52.4708 127.142 52.4708C125.743 52.4902 124.285 53.2481 123.255 54.4919C123.119 54.6668 122.847 54.8028 122.653 54.8028C122.458 54.8028 121.739 55.0166 121.059 55.2692L119.835 55.7162L118.863 55.2692C117.755 54.7445 116.648 54.7056 113.5 54.9971C110.818 55.2498 110.06 55.4635 107.786 56.5324C105.493 57.6012 104.191 58.7284 103.433 60.2831C103.18 60.8078 102.947 61.2159 102.889 61.2159C102.85 61.2159 102.558 60.7106 102.247 60.0693C101.12 57.8344 99.6433 57.3486 97.4279 58.4174C94.8433 59.7001 93.9687 61.313 93.9687 64.85C93.9687 68.0565 93.6967 68.0759 92.725 64.9083C91.6756 61.5657 90.8788 60.4385 89.5379 60.4385C88.4885 60.4385 86.3313 61.2936 84.7766 62.3236C83.1054 63.4313 82.2697 64.3253 81.4341 65.8411C80.9677 66.6962 80.9094 66.7545 80.2681 66.6573C79.2575 66.5212 78.0915 66.5601 77.5279 66.735C77.1392 66.8516 76.906 66.7739 76.4396 66.3852C75.7206 65.7828 74.7878 65.7245 72.2225 66.1909C69.5601 66.6573 67.0921 67.8039 65.4597 69.3391L64.7406 70.0193L63.6135 69.7084C61.0094 68.931 59.8239 68.7561 56.8117 68.6589C51.3897 68.4646 48.086 69.3003 44.4131 71.7683C40.7596 74.2169 37.5919 78.5701 36.6591 82.4179C36.2704 84.0309 36.251 86.8294 36.6396 88.3063C37.8251 92.8343 41.9256 96.2935 47.4253 97.4401C48.2221 97.5956 48.98 97.6733 49.116 97.5956C49.2909 97.4984 49.0188 97.032 48.1638 96.002C46.1621 93.5534 45.0932 90.6189 45.6763 89.1808C46.5313 87.1209 49.1354 85.7022 53.3525 85.022C55.6846 84.6334 56.5396 84.6528 57.5891 85.1192C59.1049 85.7994 59.9405 85.7994 61.9422 85.1581C64.3714 84.3807 66.101 83.3507 67.6168 81.8349C69.1909 80.2414 70.1432 78.4729 70.2986 76.8211L70.4152 75.655L71.2509 75.7522C72.2808 75.8688 74.9821 75.072 76.0704 74.3335C76.4591 74.0615 76.8283 73.8477 76.8866 73.8477C76.9449 73.8477 77.4113 74.2169 77.8972 74.6445C79.0437 75.655 81.5895 76.9182 82.8333 77.0737C83.3386 77.1514 83.7661 77.2486 83.7661 77.3069C83.7661 77.3652 83.358 77.8122 82.8527 78.298C81.4729 79.6389 80.7733 81.0576 80.7539 82.5345C80.7539 84.2836 81.0454 84.439 81.881 83.137C83.1248 81.213 84.5629 80.2414 86.9532 79.7555C88.2358 79.4835 90.5679 79.5223 90.5679 79.8333C90.5679 79.8916 90.2958 80.1636 89.9849 80.4357C89.4407 80.9021 88.8577 82.2042 89.1881 82.2042C89.2658 82.2042 89.6739 82.0487 90.1015 81.8349C91.0926 81.3685 91.7922 81.1547 91.695 81.3491C91.112 82.5345 90.8788 83.2341 90.8011 83.992C90.7039 85.0026 90.8982 85.1775 91.3452 84.5168C91.6756 84.0503 93.3857 82.8455 94.6101 82.2236C95.4651 81.7961 97.9526 80.9604 98.0498 81.077C98.0692 81.1159 98.283 81.5628 98.4968 82.0681C98.8077 82.7483 98.8466 83.0204 98.6717 83.0787C98.5356 83.1175 97.6611 83.3313 96.6894 83.5645C91.5201 84.75 84.2714 88.0342 79.9765 91.1436C77.1587 93.2036 74.1076 96.3129 74.5157 96.7211C74.5934 96.7988 76.323 96.5656 78.383 96.2158C80.443 95.8465 83.2608 95.3413 84.6406 95.1081C88.6634 94.4085 91.2869 94.1947 94.8238 94.3113C98.0304 94.4085 98.9243 94.5251 98.9243 94.8554C98.9243 95.2247 96.2425 97.1875 94.7267 97.9454C92.3363 99.092 88.4885 100.064 84.9904 100.375C82.8916 100.549 79.0243 100.064 77.5085 99.4029C76.7506 99.092 77.1975 99.947 78.4219 101.132C80.5207 103.212 84.66 104.961 90.1598 106.088C94.0465 106.904 100.129 106.943 104.56 106.185C107.708 105.661 111.42 104.3 113.616 102.901C114.529 102.298 114.84 102.221 115.909 102.221C117.231 102.221 119.699 101.657 120.729 101.132C121.079 100.958 121.953 100.219 122.653 99.5195C123.76 98.4118 123.974 98.0425 124.382 96.8182C125.024 94.7971 124.888 92.7566 123.955 90.5995L123.275 89.0448L124.11 88.6561C127.278 87.1209 128.055 83.856 126.034 80.6495C125.762 80.2025 125.548 79.8138 125.587 79.775C125.626 79.7361 125.995 79.775 126.423 79.8527L127.2 79.9693L127.336 81.6795C127.472 83.6422 127.958 84.8083 128.969 85.7022C129.629 86.2852 129.649 86.3046 129.532 87.4124C129.299 89.5306 130.31 92.193 132.311 94.6611C133.458 96.0797 134.954 97.3429 135.187 97.1097C135.265 97.0514 135.09 96.1769 134.818 95.1858C134.041 92.4457 133.885 91.1825 133.71 87.1597C133.555 83.2341 133.341 82.2236 132.039 79.6389C131.787 79.1336 131.573 78.6867 131.573 78.6478C131.573 78.5895 132.117 78.4535 132.778 78.3174C133.438 78.2008 134.313 77.9093 134.721 77.715L135.459 77.3458L136.587 78.4729C137.208 79.0948 137.986 79.7167 138.336 79.8527C138.763 80.0276 138.938 80.2219 138.88 80.4357C138.413 82.1264 138.666 84.5751 139.463 86.1492C140.881 88.9282 144.982 91.3768 148.733 91.6683C149.976 91.7655 150.268 91.7266 150.19 91.5323C150.151 91.3962 149.121 90.6772 147.916 89.9582C145.701 88.6172 144.263 87.5678 143.486 86.7322C143.097 86.2852 143.077 86.1103 143.175 84.5362C143.252 83.5062 143.194 82.3402 143.058 81.6406C142.922 80.9993 142.805 79.9499 142.766 79.3474C142.728 78.4729 142.514 77.8316 141.834 76.4712C140.512 73.8477 140.512 73.9254 141.62 73.77C142.125 73.6922 142.883 73.5368 143.291 73.4202C143.971 73.2064 144.049 73.2258 144.71 73.906C145.079 74.2752 145.662 74.7028 145.954 74.8194L146.517 75.0526L146.401 76.8405C146.148 80.7855 147.722 83.5839 151.414 85.7605C152.872 86.6156 155.262 87.4124 156.856 87.5873C158.138 87.7233 158.352 87.4901 157.478 86.9265C155.515 85.7216 153.513 84.2836 152.503 83.3702L151.337 82.3013L151.589 80.63C151.92 78.4535 151.764 75.0137 151.298 73.8671C151.104 73.4007 150.734 72.7983 150.482 72.5262C150.248 72.2542 150.035 71.9821 150.035 71.8849C150.035 71.8072 149.16 70.7966 148.091 69.6306C147.022 68.484 146.148 67.4735 146.148 67.3763C146.148 67.2986 146.498 67.2403 146.925 67.2403C147.839 67.2403 148.966 66.8128 149.588 66.2492L149.996 65.8411L150.521 66.9488C151.006 67.9399 151.414 68.3674 152.814 69.2808C153.066 69.4363 153.086 69.6501 152.911 70.5829C152.639 72.0015 152.95 73.9254 153.708 75.5384C154.524 77.2097 156.681 79.0948 159.11 80.2025C160.101 80.6689 160.334 80.6883 162.045 80.5912C164.862 80.4163 164.94 79.8916 162.297 78.9976C160.315 78.3369 158.683 77.3652 158.702 76.8599C158.721 76.6461 158.838 75.7716 158.974 74.936C159.382 72.1181 158.78 69.3974 157.303 67.4929C156.836 66.8905 155.476 65.3747 154.31 64.1115C151.823 61.4491 151.201 61.0993 149.218 61.2742C148.538 61.3325 147.819 61.4296 147.586 61.5074C147.197 61.624 147.178 61.5462 147.042 60.0693C146.925 58.6895 146.964 58.398 147.333 57.6984C148.014 56.338 148.286 55.172 148.286 53.4813C148.286 52.2181 148.363 51.7323 148.635 51.3436C149.257 50.4691 149.976 48.7395 150.287 47.418C150.987 44.5419 150.909 42.5013 149.937 39.1587C149.491 37.6235 149.452 37.3126 149.646 36.5352C149.782 36.0494 149.918 34.6502 149.976 33.4258C150.074 31.5602 150.015 30.9189 149.685 29.578C149.199 27.6735 148.519 26.2548 147.508 25.0694C146.712 24.0977 146.323 22.7957 145.954 19.628C145.818 18.462 145.584 17.6263 145.176 16.8101C144.496 15.4692 144.185 15.0805 142.456 13.5647C141.445 12.6902 141.115 12.2626 140.823 11.427C140.609 10.8634 140.085 9.65855 139.638 8.74517C138.18 5.8107 135.498 3.82847 132.292 3.30376C131.514 3.16772 130.815 2.99283 130.698 2.91509C130.601 2.83736 129.629 2.33208 128.561 1.78795C125.879 0.447029 124.713 0.136093 122.147 0.116653C120.224 0.0972214 119.893 0.155518 118.941 0.602493C118.358 0.874565 117.464 1.51587 116.978 2.02115C116.181 2.85679 115.89 2.99283 114.257 3.4398C111.984 4.04224 110.41 4.08111 109.185 3.53697C107.922 2.9734 105.765 1.51588 104.968 0.699661C104.599 0.310989 104.21 5.34058e-05 104.133 5.34058e-05C104.055 5.34058e-05 103.977 0.466454 103.977 1.04946ZM126.034 1.74908C127.375 2.27379 129.804 3.7313 129.474 3.8479C129.357 3.88677 128.561 3.69244 127.686 3.42037C125.49 2.72076 123.683 2.46812 121.273 2.56528C119.718 2.60416 119.077 2.72076 118.688 2.97339C118.397 3.16772 118.164 3.22603 118.164 3.14829C118.164 2.75962 119.058 1.86568 119.796 1.51587C120.943 0.991165 124.363 1.10777 126.034 1.74908ZM116.026 4.64468C116.026 4.72241 115.365 4.99449 114.549 5.24712C113.383 5.5775 112.742 5.65523 111.576 5.59692C110.759 5.55806 109.924 5.4026 109.71 5.286C109.399 5.11109 109.613 5.05279 110.876 5.03336C111.731 5.01392 112.994 4.89732 113.694 4.76128C115.268 4.46978 116.026 4.43091 116.026 4.64468ZM134.604 5.44146C137.053 6.54917 138.433 7.90953 138.958 9.73628C139.132 10.3193 139.035 10.261 137.636 8.8812C136.276 7.54028 134.546 6.06334 133.302 5.20826C132.564 4.68356 133.205 4.80015 134.604 5.44146ZM140.804 13.3898C143.116 14.7113 144.36 16.6741 144.865 19.7252C145.507 23.6119 145.545 23.3398 144.341 22.8345C143.719 22.5819 143.583 22.3876 143.252 21.3381C142.611 19.3365 142.378 18.7729 141.911 18.1316C141.6 17.6846 141.542 17.4903 141.717 17.432C141.892 17.3543 141.873 17.3154 141.678 17.3154C141.523 17.296 141.27 17.1016 141.115 16.849C140.92 16.5186 140.901 16.4797 141.115 16.6546C141.406 16.9462 141.756 16.985 141.6 16.7324C141.523 16.6352 141.562 16.3048 141.678 16.0328C141.853 15.5664 141.795 15.3915 141.348 14.789C141.056 14.4004 140.532 13.7979 140.182 13.4481C139.385 12.6708 139.541 12.6708 140.804 13.3898ZM141.542 15.683C141.406 15.7413 141.367 15.9162 141.426 16.0911C141.503 16.3437 141.484 16.3631 141.309 16.2077C141.037 15.955 141.251 15.2943 141.542 15.4886C141.698 15.5858 141.698 15.6441 141.542 15.683ZM134.76 16.0328C134.838 16.3437 134.974 16.4797 135.11 16.402C135.246 16.3048 135.265 16.3437 135.168 16.4992C135.012 16.7712 135.44 17.7235 135.673 17.5875C135.751 17.5292 135.77 17.6846 135.712 17.9178C135.654 18.2482 135.673 18.2871 135.809 18.1122C135.926 17.9178 136.023 18.0927 136.081 18.6952C136.276 20.2887 137.481 22.1932 138.958 23.1843C139.307 23.437 139.366 23.573 139.21 23.7285C138.53 24.4086 135.634 21.8434 134.896 19.9195C134.41 18.6369 134.099 15.5469 134.429 15.5469C134.546 15.5469 134.702 15.7607 134.76 16.0328ZM140.648 15.8384C140.648 15.9939 140.57 16.1299 140.473 16.1299C140.279 16.1299 140.26 15.8579 140.454 15.683C140.629 15.4886 140.648 15.5081 140.648 15.8384ZM144.807 24.5058C146.129 25.1666 147.664 26.7795 148.422 28.3342C148.946 29.4031 148.966 29.5585 148.946 32.1627C148.946 33.659 148.849 35.0777 148.752 35.3303C148.558 35.7579 148.538 35.7384 147.994 34.7473C146.381 31.7157 145.798 30.9383 143.447 28.5869C142.106 27.2654 140.979 26.2743 140.959 26.3714C140.784 26.8962 141.892 30.9966 142.533 32.2015C142.922 32.9206 143.213 33.5036 143.175 33.523C143.155 33.5424 142.611 33.659 141.97 33.7951C140.57 34.0671 140.59 34.0866 139.715 31.8129C138.958 29.8306 138.705 28.3731 138.86 27.0127C139.132 24.8167 139.793 24.0783 141.678 23.8839C143.039 23.7479 143.466 23.8256 144.807 24.5058ZM145.682 35.6607C147.353 36.7101 148.247 37.6818 149.044 39.3336C150.287 41.9378 150.326 43.8034 149.16 47.3403C148.169 50.3719 147.975 50.4497 147.955 47.865C147.955 44.2503 147.217 42.2487 144.574 38.7312C143.835 37.7401 143.233 36.8267 143.233 36.6907C143.233 36.2437 142.903 36.8267 142.456 38.0705C141.931 39.5668 140.512 42.0155 139.677 42.9094C139.094 43.5119 138.025 44.2309 137.889 44.0754C137.869 44.0366 138.005 43.0066 138.219 41.7823C138.899 37.6429 140.046 35.583 141.97 35.0777C143.641 34.6307 144.146 34.7085 145.682 35.6607ZM142.922 45.2803C143.311 45.5524 143.894 46.1548 144.205 46.6018C144.749 47.418 145.682 49.8861 145.526 50.0416C145.487 50.0999 144.885 49.8278 144.185 49.4586C143.486 49.0893 142.397 48.6618 141.775 48.4869C139.754 47.9622 135.945 48.1565 134.041 48.8755C133.652 49.031 133.225 49.167 133.127 49.167C132.758 49.167 133.477 48.1176 134.429 47.2237C135.887 45.8439 136.12 45.669 137.345 45.1637C138.316 44.7556 138.724 44.6973 140.337 44.7362C141.95 44.7945 142.281 44.8528 142.922 45.2803ZM137.5 49.3808C139.89 49.8278 142.028 51.4408 143.019 53.559C143.466 54.5113 143.466 54.8028 143 54.3558C142.494 53.8311 140.104 52.2764 139.191 51.8683C138.705 51.6351 137.247 51.2076 135.945 50.8966C134.663 50.5857 133.361 50.2553 133.03 50.1582L132.447 50.0027L133.03 49.7501C134.449 49.1476 135.693 49.0504 137.5 49.3808ZM136.256 51.5574C138.627 52.3153 140.201 53.6368 141.911 56.3575C142.844 57.7956 143.874 59.875 143.738 60.011C143.68 60.0693 143.213 59.7195 142.708 59.2531C139.094 55.8911 132.914 52.4708 130.484 52.4708C130.135 52.4708 129.804 52.393 129.746 52.2959C129.629 52.121 130.601 51.3047 131.184 51.0521C131.787 50.78 134.799 51.091 136.256 51.5574ZM130.893 53.2481C132.292 53.4813 134.468 54.5113 135.615 55.483C136.995 56.6684 138.608 59.292 139.366 61.6045L139.715 62.6734L139.21 61.9932C138.277 60.7883 135.576 58.2037 134.449 57.4652C133.069 56.5518 130.99 55.5024 129.746 55.0943C128.58 54.7251 125.898 54.3364 125.237 54.4724C124.479 54.6085 124.713 54.2198 125.645 53.8117C127.084 53.1704 129.105 52.9566 130.893 53.2481ZM127.511 55.4635C129.318 55.7939 131.204 56.6878 132.311 57.7761C134.041 59.4669 135.809 63.4896 135.965 66.0743C136.042 67.1626 136.023 67.2597 135.829 66.8516C134.255 63.5479 133.73 62.79 131.456 60.6523C129.746 59.0199 128.114 57.8344 126.909 57.2903C125.16 56.5324 124.81 56.4546 122.692 56.4546C121.487 56.4546 120.496 56.4352 120.496 56.4158C120.496 56.2409 123.003 55.5024 123.994 55.3858C125.801 55.172 125.879 55.172 127.511 55.4635ZM117.853 55.7745C118.358 55.9494 118.552 56.3575 118.144 56.3575C118.028 56.3575 117.678 56.5324 117.367 56.7656C116.453 57.4263 115.151 57.3292 113.946 56.5324C113.383 56.1631 112.916 55.8133 112.916 55.7162C112.916 55.5024 117.27 55.5413 117.853 55.7745ZM110.895 56.4546C110.973 56.6101 110.954 57.0571 110.895 57.4458C110.779 57.9705 110.623 58.1842 110.137 58.398C109.477 58.6701 109.108 58.5923 109.38 58.2425C109.477 58.1065 109.671 57.6984 109.807 57.3292C110.254 56.1826 110.662 55.8522 110.895 56.4546ZM112.936 56.785C113.363 57.0182 113.694 57.2514 113.694 57.3292C113.694 57.3875 113.363 57.5624 112.975 57.7178C112.567 57.8733 112.178 58.0288 112.1 58.0676C112.003 58.1065 111.945 57.7373 111.945 57.2514C111.945 56.7656 112.003 56.3575 112.061 56.3575C112.139 56.3575 112.528 56.5518 112.936 56.785ZM109.03 57.3292C108.661 57.6401 108 58.1842 107.592 58.534C106.309 59.6029 104.171 60.6912 104.171 60.2636C104.171 59.8167 105.609 58.3203 106.503 57.8344C108.486 56.7461 110.099 56.4352 109.03 57.3292ZM124.79 57.096C127.414 57.7956 129.61 59.6612 131.106 62.5179C131.806 63.8005 132.933 66.599 132.933 66.9877C132.933 67.0654 132.603 66.735 132.214 66.2492C130.776 64.5585 127.88 61.7989 126.481 60.8272C124.324 59.292 121.331 58.0482 118.766 57.6207C118.028 57.5041 117.95 57.4458 118.28 57.2709C119.213 56.7461 123.022 56.649 124.79 57.096ZM119.524 58.2231C120.962 58.6312 123.236 59.875 124.713 61.0604C126.695 62.6734 128.25 65.2581 128.969 68.1342L129.299 69.4363L128.735 69.8833L128.172 70.3302L127.647 69.1836C126.403 66.4241 123.935 63.4313 121.564 61.7989C119.621 60.458 116.492 59.0976 114.413 58.6895C113.791 58.5535 113.305 58.4174 113.344 58.3786C113.402 58.3397 113.946 58.1842 114.588 58.0093C115.909 57.679 117.872 57.7761 119.524 58.2231ZM100.673 59.4474C100.673 60.0304 99.9737 61.2159 99.1964 61.9544C98.9437 62.207 98.73 62.3819 98.73 62.343C98.7494 62.207 100.013 59.1559 100.149 58.9227C100.401 58.5535 100.673 58.845 100.673 59.4474ZM99.2741 59.1171C99.2158 59.2531 98.8854 59.4086 98.5162 59.4863C98.147 59.5446 97.6611 59.7001 97.4085 59.8361C96.8449 60.147 95.7761 61.7989 95.3097 63.1009C95.1153 63.6645 94.8044 64.3253 94.6101 64.5585C94.2797 65.0054 94.2602 64.986 94.3768 64.0337C94.61 61.9932 94.9793 61.0993 95.951 60.2636C97.0587 59.2725 99.4879 58.4369 99.2741 59.1171ZM114.219 59.3891C116.706 59.8944 119.718 61.6823 121.292 63.5868C122.653 65.2192 124.188 67.629 123.896 67.629C123.819 67.629 123.236 67.2403 122.575 66.7739C118.28 63.7228 114.802 62.5179 109.613 62.2653C107.339 62.1487 104.055 62.4596 102.947 62.8677C102.772 62.9455 102.617 62.926 102.617 62.8094C102.617 62.5762 104.793 61.177 105.629 60.8661C105.959 60.7495 106.775 60.4191 107.456 60.147C108.777 59.5835 110.798 59.1171 112.003 59.0976C112.411 59.0782 113.402 59.2142 114.219 59.3891ZM90.5679 61.5851C90.665 61.7989 90.7622 62.1487 90.7622 62.3625C90.7622 62.7706 88.7411 65.0832 88.5468 64.8888C88.4885 64.8305 88.78 64.0532 89.2075 63.1787C89.635 62.3042 89.9849 61.5074 89.9849 61.4102C89.9849 61.0798 90.3541 61.1964 90.5679 61.5851ZM89.2075 61.7406C89.2075 62.3625 88.9354 62.4791 87.7111 62.5179C86.3508 62.5374 85.6512 62.8677 84.5629 64.0143C83.9021 64.6945 83.2608 64.9471 83.4163 64.4613C83.5329 64.1309 85.2625 62.8483 86.2536 62.3625C86.9532 62.0127 88.5468 61.4879 89.0715 61.4296C89.1492 61.4102 89.2075 61.5657 89.2075 61.7406ZM152.93 63.8588C153.746 64.7139 154.757 65.9771 155.146 66.6379C155.962 68.0176 155.942 68.0176 153.96 67.1237C152.58 66.5018 151.453 65.6079 151.026 64.7334C150.598 63.8977 150.035 62.071 150.151 61.9349C150.443 61.6628 151.628 62.4791 152.93 63.8588ZM149.316 63.0621C149.257 64.9666 148.033 65.6856 145.545 65.2775C144.263 65.0832 143.952 65.0832 143.136 65.3552C141.873 65.7828 141.62 65.7828 141.853 65.3358C142.242 64.5973 143.349 63.7228 144.379 63.3341C145.662 62.8483 148.888 62.0127 149.16 62.0904C149.277 62.1098 149.335 62.5568 149.316 63.0621ZM110.487 63.5479C112.197 63.956 115.093 65.0637 116.337 65.7828C117.114 66.2492 118.358 67.4735 118.358 67.8039C118.358 68.0759 114.568 69.378 112.644 69.7667C108.175 70.68 97.8166 70.9715 94.2602 70.2914C93.2497 70.097 92.3363 69.8638 92.2586 69.7861C92.1614 69.6889 92.4724 69.3586 92.9388 69.0282C93.3857 68.6978 94.1242 68.1148 94.5517 67.7261C98.866 63.82 104.988 62.2264 110.487 63.5479ZM98.3607 63.3536C98.5551 63.4702 98.73 63.6645 98.73 63.8005C98.73 63.9949 97.5445 64.9083 97.2724 64.9083C97.1364 64.9083 97.1558 63.4313 97.3113 63.2953C97.4862 63.1009 97.9138 63.1204 98.3607 63.3536ZM83.1831 65.3941C83.3774 65.6467 83.358 65.7633 83.0665 66.1326C82.5224 66.7933 82.1725 67.046 81.9976 66.9294C81.7256 66.7739 81.7839 66.4241 82.2114 65.7245C82.639 65.0249 82.8333 64.9666 83.1831 65.3941ZM87.6528 65.2969C87.6528 65.3941 87.9249 65.4913 88.2358 65.4913C88.7994 65.4913 88.8188 65.5107 88.8188 66.4241C88.8188 67.0265 88.9743 67.6873 89.2852 68.2703C89.5184 68.7755 89.6933 69.2031 89.6545 69.2419C89.6156 69.2808 89.1686 69.1253 88.6634 68.8727C88.1581 68.6201 87.1087 68.2314 86.3508 67.9788C85.5734 67.7456 84.9321 67.4929 84.9321 67.4346C84.9321 67.3763 85.3985 66.8322 85.9815 66.2103C86.9143 65.1998 87.6528 64.7917 87.6528 65.2969ZM89.8682 65.8216C89.9265 66.016 90.0237 66.599 90.1015 67.1431C90.1986 67.901 90.1792 68.0565 89.9849 67.901C89.6545 67.5707 89.2464 66.2686 89.3435 65.8605C89.4796 65.3941 89.7322 65.3941 89.8682 65.8216ZM143.039 66.7545C143.039 67.0265 141.484 68.4063 141.154 68.4063C140.434 68.4063 138.511 69.0087 137.947 69.3974C137.519 69.7084 137.228 69.7667 136.723 69.6889C136.353 69.6112 136.042 69.4752 136.042 69.3974C136.042 69.1059 137.422 68.1731 138.452 67.765C140.571 66.9294 143.039 66.3852 143.039 66.7545ZM145.137 67.4152C145.973 68.0759 148.48 70.9132 148.48 71.2047C148.48 71.263 148.752 71.71 149.082 72.2153C149.801 73.2647 149.665 73.4785 148.344 73.3813C146.906 73.2647 143.913 71.1464 143.447 69.8833C143.116 69.0282 143.175 67.4929 143.563 67.046C143.758 66.8322 143.971 66.6573 144.03 66.6573C144.107 66.6573 144.613 67.0071 145.137 67.4152ZM75.3125 67.6873V68.4257L73.6606 69.1253C71.8922 69.8833 70.0654 71.0104 69.0549 71.9627L68.433 72.5457L67.4807 71.6712C66.956 71.1853 66.3342 70.7189 66.101 70.6412C65.7317 70.5246 65.7123 70.4663 65.9261 70.1942C66.2953 69.7472 68.6273 68.2703 69.7156 67.8039C71.1731 67.182 72.6695 66.8711 74.0493 66.9099L75.3125 66.9488V67.6873ZM83.6495 68.5035C84.6406 68.7755 88.0221 70.1359 89.4796 70.8744L90.0432 71.1659L89.2269 71.5545C87.5751 72.3125 86.0593 72.5651 84.4074 72.3513C82.0948 72.0404 80.2098 71.2242 78.9271 69.9804L77.8583 68.9504L78.3441 68.5812C78.7134 68.2897 79.1603 68.212 80.6567 68.212C81.7061 68.212 83.0082 68.348 83.6495 68.5035ZM157.478 69.9027C157.983 71.0493 158.236 72.4874 158.08 73.3619L157.925 74.1392L157.789 72.8955C157.614 71.4379 157.089 70.7772 155.748 70.2136L154.893 69.8638L155.826 69.5529C157.128 69.1059 157.128 69.1059 157.478 69.9027ZM58.7551 69.8638C59.6684 70.0193 60.6207 70.2331 60.8733 70.3302C63.4386 71.3213 64.2936 71.8266 64.9738 72.7206C65.8289 73.8477 65.8289 73.8477 63.1665 73.9254C59.7267 74.042 56.7534 74.8388 53.061 76.6461C50.3403 77.9871 45.1321 81.1353 45.3459 81.3491C45.3848 81.3879 46.201 81.2519 47.1532 81.0381C48.8828 80.6495 51.1177 80.5134 51.1177 80.7855C51.1177 80.8827 50.5735 81.1936 49.8933 81.5045C47.3864 82.6706 45.2099 84.9249 44.588 87.0237C43.9661 89.0642 44.3936 92.3874 45.5208 94.2141C45.7346 94.5639 45.8706 94.8943 45.8123 94.9526C45.6763 95.1081 42.975 93.7088 42.081 93.0287C40.2543 91.61 38.8939 89.6667 38.2526 87.5873C36.8728 83.0398 39.6907 76.9765 44.9766 73.0704C47.7897 71.2971 46.7082 71.8685 48.3387 71.1076C51.4783 69.6805 55.3746 69.27 58.7551 69.8638ZM135.032 70.2914C134.974 70.3885 134.818 70.7189 134.682 71.0687L134.41 71.6712L132.156 71.7489C129.979 71.8072 129.843 71.8266 128.852 72.4485C128.288 72.7983 127.803 73.0509 127.764 73.0121C127.608 72.876 128.444 71.3991 128.91 70.9715C129.163 70.7189 129.629 70.4468 129.94 70.3497C130.64 70.1553 135.129 70.097 135.032 70.2914ZM136.742 70.9521C138.297 71.9044 140.57 75.1303 141.017 76.996C141.134 77.4818 141.095 77.5207 140.57 77.4235C139.23 77.1903 138.258 76.9182 137.655 76.6461C136.14 75.9077 134.974 73.0509 135.479 71.3213C135.751 70.4274 135.848 70.3885 136.742 70.9521ZM92.5695 71.9432C93.6384 73.0121 95.4068 73.9449 97.0975 74.353C98.4385 74.6639 99.449 74.6639 103.938 74.3141C104.949 74.2364 105.532 74.2558 105.532 74.3724C105.532 74.489 105.162 74.9166 104.696 75.3441C103.744 76.2186 102.247 76.8405 100.09 77.268C97.7389 77.7344 95.6789 78.298 94.6101 78.8033C94.0659 79.0559 93.5412 79.2308 93.4829 79.1919C93.4052 79.1531 93.4246 78.6867 93.5023 78.1814C93.5801 77.6761 93.6578 76.6656 93.6578 75.9271C93.6772 74.3918 93.6384 74.3919 91.9865 75.1303C90.7428 75.6939 87.4585 76.0437 87.4585 75.6356C87.4585 75.2081 89.363 72.9538 90.4901 72.0598C91.112 71.574 91.6561 71.1464 91.695 71.1464C91.7144 71.127 92.1225 71.4962 92.5695 71.9432ZM125.548 74.5279C126.539 74.6445 128.094 75.3441 128.93 76.0243C129.61 76.5878 129.552 77.1903 128.735 77.9871C127.939 78.7838 127.258 78.6867 126.073 77.6178C124.654 76.3352 123.722 75.9077 122.342 75.9077C121.7 75.8882 120.826 75.966 120.418 76.0437L119.66 76.2186L119.951 75.7522C120.418 75.0526 121.448 74.5473 122.633 74.4113C123.702 74.3141 123.877 74.3141 125.548 74.5279ZM150.773 74.7222C150.715 75.0137 150.754 75.1498 150.87 75.072C151.142 74.9166 150.929 79.6778 150.657 80.1831C150.443 80.5329 150.443 80.5134 150.423 80.0665C150.423 79.6001 149.607 76.1992 149.354 75.5773C149.277 75.3441 149.393 75.1886 149.821 75.0332C150.132 74.8971 150.443 74.6639 150.501 74.5085C150.676 74.0615 150.87 74.1975 150.773 74.7222ZM118.125 76.685C119.213 76.996 120.496 77.7733 120.496 78.1425C120.496 78.2397 120.049 78.3174 119.504 78.3174C118.416 78.3174 116.473 78.7644 115.54 79.2308C115.229 79.3863 114.51 79.9693 113.966 80.494L112.955 81.4657L111.576 81.1353C110.079 80.7661 110.118 80.8244 110.604 79.5418C110.895 78.7644 112.372 77.3458 113.383 76.8599C114.588 76.2769 116.473 76.2186 118.125 76.685ZM87.6139 77.5207C87.6917 77.5401 87.0115 77.851 86.1176 78.2008C85.2236 78.5701 84.0382 79.1725 83.494 79.5612C82.9693 79.9304 82.4835 80.2025 82.4446 80.1636C82.328 80.047 83.2997 78.9199 83.9216 78.434C84.7961 77.7344 86.5062 77.3069 87.6139 77.5207ZM159.829 79.017C160.218 79.1142 160.296 79.1919 160.101 79.3085C159.751 79.5418 159.518 79.5223 159.654 79.2697C159.732 79.1531 159.654 79.0948 159.46 79.1336C159.246 79.1725 159.052 79.017 158.955 78.7061C158.799 78.2786 158.819 78.2591 159.032 78.5506C159.168 78.7255 159.538 78.9393 159.829 79.017ZM121.176 79.3085C123.644 79.7555 125.354 81.1353 125.82 83.0204C125.976 83.6617 126.015 83.6617 123.896 83.273C122.089 82.9426 120.146 82.9038 119.427 83.1758C118.96 83.3507 118.941 83.4285 119.038 84.1475C119.096 84.5751 119.096 84.9249 119.019 84.9249C118.96 84.9249 118.572 84.6528 118.164 84.3419C117.755 84.0115 116.648 83.3507 115.695 82.8455C114.763 82.3596 113.946 81.9127 113.908 81.8738C113.713 81.7183 115.054 80.7272 116.142 80.2219C117.075 79.775 118.863 79.2502 119.932 79.1142C119.99 79.0948 120.554 79.1919 121.176 79.3085ZM66.8589 80.5717C66.2759 81.1547 65.6346 81.7378 65.4208 81.8544C65.2265 81.9515 65.6734 81.4657 66.3925 80.7661C68.0249 79.2114 68.297 79.0948 66.8589 80.5717ZM130.815 82.243C130.815 83.992 130.64 84.9443 130.251 85.1969C129.785 85.4884 128.191 82.8649 127.958 81.4657L127.841 80.7078L128.774 80.7855C129.61 80.8632 129.785 80.8049 130.115 80.3968C130.659 79.7167 130.795 80.0665 130.815 82.243ZM142.261 83.3702C142.261 84.6528 142.183 85.7022 142.086 85.7022C141.795 85.7022 141.27 84.0115 141.154 82.6317C141.037 81.1547 140.959 81.2713 142.125 81.0576C142.203 81.0576 142.261 82.0876 142.261 83.3702ZM111.867 83.3896C116.084 84.4779 119.077 86.9654 119.815 89.9776C119.951 90.5217 120.632 90.308 113.694 91.8238C109.01 92.8538 105.629 94.117 103.297 95.7105C102.889 95.9826 102.5 96.1963 102.442 96.1963C102.383 96.1963 102.325 95.3413 102.306 94.2919C102.306 92.0181 102.014 91.3379 100.829 90.7355C99.1964 89.8999 94.8821 89.9582 90.8205 90.8521C86.7783 91.7461 79.6656 93.7477 78.6939 94.2724C78.4607 94.389 78.3247 94.389 78.3247 94.2724C78.3247 94.0392 81.5312 91.6295 83.1831 90.6189C85.6123 89.1614 89.2075 87.4318 92.3169 86.2852C94.027 85.6439 95.5623 85.1192 95.7372 85.1192C95.8927 85.1192 96.2036 85.0415 96.3979 84.9249C96.5923 84.8277 97.9138 84.4779 99.3518 84.1475C104.774 82.9426 109.127 82.6706 111.867 83.3896ZM151.589 84.0309C151.589 84.1864 151.764 84.3613 151.978 84.439C152.192 84.4973 152.347 84.6722 152.308 84.7888C152.289 84.9249 152.386 85.0026 152.522 84.9637C152.678 84.9443 152.736 85.0026 152.658 85.1192C152.483 85.3913 151.706 84.8277 151.434 84.2447C151.298 83.9532 151.278 83.7588 151.395 83.7588C151.512 83.7588 151.589 83.8754 151.589 84.0309ZM153.358 85.4496C153.591 85.7605 153.591 85.7799 153.319 85.5662C153.144 85.4301 152.93 85.3913 152.853 85.469C152.755 85.5467 152.755 85.4884 152.833 85.3524C153.008 85.0415 153.047 85.0609 153.358 85.4496ZM131.029 87.0626C130.912 87.3735 130.757 88.1897 130.679 88.8699C130.562 89.8221 130.504 89.9776 130.387 89.5889C130.31 89.3169 130.251 88.5589 130.232 87.8788C130.212 86.7905 130.251 86.635 130.659 86.499C131.223 86.2852 131.262 86.3435 131.029 87.0626ZM146.051 90.1331C145.915 90.2691 144.632 89.5112 144.438 89.1808C144.263 88.9087 144.457 88.9865 145.157 89.4335C145.682 89.7833 146.09 90.0942 146.051 90.1331ZM123.139 91.7655C123.663 93.5145 123.624 96.2158 123.08 97.2652C122.653 98.062 121.739 99.0142 120.884 99.5389C120.301 99.8887 118.144 100.705 118.047 100.608C118.008 100.569 118.533 99.9859 119.213 99.2863C121.117 97.3235 122.439 94.0975 122.439 91.3379C122.439 90.2108 122.73 90.3857 123.139 91.7655ZM98.73 98.7033C98.73 99.9859 98.7105 100.044 98.2053 100.239C97.0587 100.666 95.64 101.055 93.6772 101.463C91.1314 101.988 86.0593 102.085 83.7661 101.638L82.3086 101.366L85.1265 101.23C90.0432 101.016 94.027 100.005 97.0004 98.2369C97.7972 97.7705 98.4968 97.3818 98.5939 97.3818C98.6717 97.3624 98.73 97.9648 98.73 98.7033Z" fill="black"/>
<path d="M141.95 16.3437C141.873 16.4797 141.892 16.5186 142.028 16.4408C142.125 16.3825 142.281 16.4408 142.319 16.5574C142.397 16.7323 142.436 16.7518 142.436 16.5769C142.456 16.2465 142.125 16.091 141.95 16.3437Z" fill="black"/>
<path d="M142.514 17.2375C142.514 17.4513 142.65 17.6262 142.786 17.6262C142.98 17.6262 142.98 17.5485 142.805 17.3153C142.669 17.1404 142.553 16.9655 142.514 16.9266C142.494 16.8877 142.494 17.0238 142.514 17.2375Z" fill="black"/>
<path d="M142.961 18.4037C142.844 18.6758 142.864 18.6952 143.058 18.5203C143.194 18.3843 143.252 18.2288 143.194 18.1705C143.136 18.1122 143.019 18.2094 142.961 18.4037Z" fill="black"/>
<path d="M143.252 19.1615C143.252 19.3753 143.311 19.4336 143.369 19.2781C143.427 19.1421 143.408 18.9672 143.35 18.9089C143.291 18.8312 143.233 18.9478 143.252 19.1615Z" fill="black"/>
<path d="M154.135 66.016C154.271 66.2492 154.427 66.4046 154.485 66.3463C154.543 66.3075 154.427 66.1131 154.232 65.9188C153.902 65.6079 153.882 65.6079 154.135 66.016Z" fill="black"/>
<path d="M125.218 11.9906L124.771 12.0683L124.732 28.1399L124.674 44.2115L122.439 44.639C121.215 44.8722 120.049 45.0665 119.854 45.0665C119.504 45.086 119.504 44.503 119.563 29.9472L119.621 14.8084L120.379 13.7202C120.787 13.1177 121.098 12.593 121.059 12.5347C121.02 12.4958 120.36 12.6319 119.621 12.8456C118.863 13.0594 117.211 13.3898 115.929 13.5647L113.597 13.9145L113.674 31.191C113.752 50.9161 113.636 49.6334 115.365 50.644C116.978 51.5962 118.727 51.4796 124.654 50.0221C127.88 49.2448 128.677 48.6812 129.882 46.3686L130.504 45.1832L130.562 30.6468L130.601 16.0911L129.532 14.925C128.93 14.2837 128.23 13.3315 127.978 12.8068C127.492 11.8545 127.472 11.8545 126.559 11.874C126.054 11.8934 125.451 11.9517 125.218 11.9906Z" fill="black"/>
<path d="M90.3929 13.2537L84.4851 14.4586L84.6211 36.5158C84.6794 48.6423 84.7766 58.5923 84.796 58.6118C84.8349 58.6506 89.8488 57.5818 90.4124 57.4069C90.7233 57.3097 90.7622 56.7073 90.801 49.1087L90.8593 40.9272L93.9104 40.3053C97.3696 39.5863 98.1275 39.2559 99.2546 38.0316C101.217 35.8939 101.295 35.4275 101.217 24.1949L101.159 15.0611L100.673 14.1866C100.401 13.7202 99.8376 13.0788 99.3907 12.7679C98.0498 11.8351 97.1558 11.874 90.3929 13.2537ZM95.0375 26.2354C95.0375 30.5108 94.9987 34.0088 94.9404 34.0088C94.8821 34.0088 94.0076 34.1837 92.9776 34.4169C91.9476 34.6307 91.0537 34.7667 90.9954 34.689C90.801 34.5141 90.7427 19.7834 90.9176 19.5114C91.0342 19.3365 93.891 18.5786 94.8043 18.4814C94.9792 18.462 95.0375 20.1332 95.0375 26.2354Z" fill="black"/>
<path d="M76.9644 16.0327C73.1554 16.81 68.2775 17.7428 65.654 18.2092L63.7495 18.5396V40.8688V63.198L64.1965 63.1203C64.4297 63.062 65.8289 62.7705 67.3059 62.479L69.9683 61.9348V53.3452V44.7361L70.5707 44.6195C72.3003 44.2891 73.5635 44.7361 74.2825 45.9798C74.5935 46.5045 74.6323 47.2236 74.6323 53.5978C74.6518 57.4651 74.7101 60.6522 74.7878 60.7105C74.8655 60.7494 76.2453 60.5162 77.8389 60.1664L80.7539 59.5639L80.8122 51.4795L80.8511 43.3757L79.6851 42.2875L78.4996 41.1992L79.0826 40.4801C79.413 40.072 79.9183 39.2169 80.2098 38.5756L80.7539 37.4096L80.8122 31.0937C80.8316 27.6151 80.8705 22.6595 80.9094 20.0554C80.9482 15.4691 80.9482 15.3525 80.5596 15.3719C80.3458 15.3719 78.7328 15.6829 76.9644 16.0327ZM74.6323 29.85V36.9626L74.0882 37.4874C73.6801 37.9149 73.2331 38.0898 72.2031 38.2647C71.4452 38.4007 70.6484 38.5562 70.4152 38.6145L69.9683 38.7117V31.1326V23.5535L71.3869 23.262C72.1448 23.0871 72.961 22.9122 73.1748 22.8733C73.3886 22.815 73.7967 22.7761 74.1076 22.7567L74.6323 22.7373V29.85Z" fill="black"/>
<path d="M58.8909 19.5696C58.3079 19.7056 55.6843 20.2109 53.0608 20.6967C50.4373 21.1825 47.7166 21.8044 47.017 22.0765C45.5011 22.6401 44.3157 23.5923 43.6161 24.7972C42.5084 26.7017 42.5472 25.7689 42.5667 47.7094C42.5667 58.806 42.625 67.9398 42.6638 67.9786C42.7027 68.0369 43.7327 67.8426 44.9376 67.5705C46.1425 67.2985 48.1441 66.8904 49.3684 66.6572C56.5783 65.3357 58.0552 64.5972 59.4545 61.6239L59.9597 60.5356L60.018 44.6972C60.0375 35.9909 60.0375 26.7211 60.018 24.0976L59.9597 19.3169L58.8909 19.5696ZM54.0325 43.2397V59.6611L53.605 59.7582C52.6916 59.972 49.0769 60.6327 48.8437 60.6327C48.6494 60.6327 48.5911 57.2124 48.5911 44.2114V27.79L49.0381 27.7122C50.7093 27.3624 53.4106 26.8766 53.7021 26.8377C54.0131 26.8183 54.0325 27.7122 54.0325 43.2397Z" fill="black"/>
<path d="M30.0322 25.2832C25.7568 26.1189 22.045 26.8574 21.7923 26.9157L21.3259 27.0323L21.4425 49.6918C21.5008 62.1488 21.598 72.3708 21.6369 72.4097C21.7535 72.5263 38.3498 69.0866 38.6801 68.8922C38.9328 68.7368 38.9522 50.7218 38.6996 50.7218C38.583 50.7218 38.0777 51.1882 37.553 51.7324C37.0283 52.2959 35.7262 53.7146 34.6379 54.8806L32.6557 57.0183V60.4775V63.9172L31.9367 64.1116C31.1399 64.3253 28.0694 64.9083 27.7779 64.9083C27.6807 64.9083 27.6224 58.0483 27.6418 48.4286L27.7001 31.9684L29.352 31.638C30.2654 31.4631 31.3731 31.2688 31.8395 31.191L32.6557 31.0744V34.281V37.4875L35.1238 38.2843C36.4841 38.7118 37.8445 39.0811 38.1749 39.12L38.7579 39.1588L38.7773 37.507C38.7967 36.5936 38.7579 33.115 38.6996 29.7724C38.6218 23.7674 38.6218 23.7091 38.2137 23.7285C37.9805 23.7285 34.3076 24.4282 30.0322 25.2832Z" fill="black"/>
<path d="M13.9022 28.3924C5.91503 29.9277 4.98222 30.1414 3.9328 30.6661C2.57245 31.3075 1.36757 32.4735 0.648527 33.8533L0.104386 34.8832L0.0460856 41.1214C-0.0122152 47.107 0.00721843 47.3985 0.415324 48.4673C0.648527 49.1281 1.13437 49.886 1.56191 50.3135C1.98945 50.7216 4.12714 51.9848 6.86728 53.4423L11.473 55.8715V62.1097V68.3479L9.29648 68.7754C8.09159 68.9892 6.90614 69.2418 6.67294 69.3001L6.22597 69.4167L6.1871 64.4223L6.1288 59.4279L3.11659 57.8926C1.46474 57.057 0.104386 56.3574 0.0655192 56.3574C-0.0705159 56.3574 0.026652 76.7432 0.162687 76.8209C0.240422 76.8792 2.74736 76.3934 5.74013 75.7715C8.7329 75.1691 12.6002 74.3723 14.3492 74.0225L17.4975 73.3812V63.334C17.4975 53.9476 17.478 53.2285 17.1282 52.4318C16.6618 51.3046 15.8262 50.6244 13.4941 49.3613C12.4447 48.7977 10.3653 47.69 8.9078 46.8932L6.22597 45.4357V40.8105V36.2047L8.4414 35.7772C11.8228 35.1553 11.473 34.8444 11.473 38.4785C11.473 41.5295 11.473 41.5878 11.92 41.685C12.5613 41.8405 16.9727 42.5595 17.2643 42.5595C17.4392 42.5595 17.4975 40.9465 17.4975 35.1747C17.4975 28.2564 17.478 27.79 17.1671 27.8094C16.9727 27.8288 15.5152 28.0815 13.9022 28.3924Z" fill="black"/>
</svg>
