<svg width="95" height="66" viewBox="0 0 95 66" fill="none" xmlns="http://www.w3.org/2000/svg">
<path d="M60.7858 3.30297C60.7858 3.6184 60.8294 4.15138 60.8948 4.46681C61.0473 5.30434 61.8864 6.91414 62.4858 7.52325C62.7582 7.81693 62.9652 8.04535 62.9434 8.05623C62.9325 8.05623 62.4749 8.16499 61.93 8.29552L60.9493 8.53481V15.8768C60.9493 19.9122 60.9602 25.4377 60.9819 28.1461L61.0146 33.0734L61.5268 32.9972C61.9518 32.9428 62.9108 32.747 64.1421 32.4642C64.3492 32.4099 64.3928 32.3337 64.3819 32.0509C64.371 31.8551 64.3601 26.5798 64.371 20.3037L64.3819 8.91551L64.687 8.99164C64.8505 9.04603 65.6895 9.07866 66.5613 9.06778C68.2177 9.05691 69.351 8.85025 70.2991 8.38254C70.6587 8.2085 70.8875 8.18675 72.0426 8.23026C73.0016 8.27376 73.5573 8.24113 74.0586 8.12149C74.5599 8.00184 74.756 7.99096 74.7887 8.08885C75.2682 9.63339 75.5842 10.0902 76.6194 10.7102C77.1316 11.0148 77.3277 11.1888 77.2842 11.3084C77.1207 11.7544 77.1207 12.8204 77.2951 13.473C77.6547 14.8435 78.2322 15.6266 79.3655 16.2575C79.6706 16.4315 79.9213 16.5838 79.9431 16.5947C79.9649 16.6056 79.8995 16.8775 79.8123 17.1929C79.5944 17.9326 79.5944 19.1617 79.8123 19.9122C79.9104 20.2385 80.1828 20.8693 80.4117 21.3262L80.8475 22.1528L80.4552 22.7946C80.0302 23.4907 79.5944 24.7524 79.4745 25.6117C79.4309 25.9054 79.3219 26.4819 79.2457 26.8735C79.0931 27.5587 79.0495 27.6131 78.5373 27.9394C77.8072 28.418 76.8592 29.3752 76.4887 30.0278C76.2598 30.4302 76.0528 30.6369 75.6387 30.8327C75.3336 30.985 74.8868 31.3222 74.6361 31.5941C74.2547 31.9965 74.1131 32.0835 73.7753 32.0835C72.9907 32.0944 72.1734 32.5186 71.5958 33.2148C71.5195 33.3126 71.367 33.3888 71.258 33.3888C71.149 33.3888 70.7458 33.5084 70.3644 33.6498L69.6779 33.9L69.1331 33.6498C68.5119 33.3562 67.8908 33.3344 66.1254 33.4976C64.6216 33.639 64.1966 33.7586 62.9216 34.3568C61.6358 34.9551 60.9057 35.5859 60.4807 36.4561C60.339 36.7498 60.2082 36.9782 60.1756 36.9782C60.1538 36.9782 59.9903 36.6954 59.8159 36.3365C59.1839 35.0856 58.3557 34.8137 57.1134 35.4119C55.6641 36.1298 55.1737 37.0326 55.1737 39.0122C55.1737 40.8069 55.0212 40.8178 54.4763 39.0448C53.8879 37.174 53.4411 36.5431 52.6892 36.5431C52.1007 36.5431 50.8911 37.0217 50.0194 37.5982C49.0822 38.2182 48.6136 38.7185 48.145 39.5669C47.8835 40.0455 47.8508 40.0781 47.4912 40.0238C46.9246 39.9476 46.2707 39.9694 45.9547 40.0673C45.7368 40.1325 45.606 40.089 45.3445 39.8715C44.9413 39.5343 44.4182 39.5017 42.9798 39.7627C41.4869 40.0238 40.1029 40.6655 39.1876 41.5248L38.7844 41.9055L38.1523 41.7315C36.6921 41.2964 36.0274 41.1985 34.3383 41.1441C31.298 41.0353 29.4455 41.503 27.3859 42.8844C25.3372 44.2549 23.561 46.6914 23.0379 48.845C22.82 49.7478 22.8091 51.3141 23.027 52.1408C23.6917 54.6751 25.991 56.6112 29.075 57.2529C29.5217 57.34 29.9467 57.3835 30.023 57.34C30.1211 57.2856 29.9685 57.0245 29.489 56.448C28.3666 55.0775 27.7673 53.4351 28.0942 52.6302C28.5737 51.4773 30.0339 50.6832 32.3986 50.3025C33.7063 50.085 34.1857 50.0959 34.7742 50.3569C35.6242 50.7376 36.0927 50.7376 37.2152 50.3787C38.5773 49.9436 39.5472 49.3671 40.3971 48.5187C41.2798 47.6268 41.8138 46.637 41.901 45.7124L41.9663 45.0598L42.4349 45.1142C43.0125 45.1795 44.5272 44.7335 45.1374 44.3202C45.3554 44.1679 45.5624 44.0483 45.5951 44.0483C45.6278 44.0483 45.8893 44.2549 46.1618 44.4942C46.8047 45.0598 48.2322 45.7668 48.9296 45.8538C49.213 45.8973 49.4527 45.9517 49.4527 45.9844C49.4527 46.017 49.2239 46.2672 48.9405 46.5391C48.1668 47.2896 47.7745 48.0836 47.7636 48.9103C47.7636 49.8892 47.9271 49.9762 48.3957 49.2475C49.0931 48.1706 49.8995 47.6268 51.2399 47.3549C51.9591 47.2026 53.2667 47.2243 53.2667 47.3984C53.2667 47.431 53.1142 47.5833 52.9398 47.7356C52.6347 47.9966 52.3078 48.7254 52.493 48.7254C52.5366 48.7254 52.7655 48.6384 53.0052 48.5187C53.561 48.2577 53.9533 48.138 53.8988 48.2468C53.5719 48.9103 53.4411 49.3019 53.3975 49.7261C53.343 50.2917 53.452 50.3896 53.7026 50.0197C53.8879 49.7587 54.8468 49.0843 55.5333 48.7362C56.0128 48.497 57.4077 48.0292 57.4622 48.0945C57.473 48.1163 57.5929 48.3664 57.7128 48.6492C57.8871 49.0299 57.9089 49.1822 57.8109 49.2148C57.7346 49.2366 57.2442 49.3562 56.6993 49.4868C53.8007 50.1503 49.736 51.9885 47.3278 53.7288C45.7477 54.8818 44.0368 56.6221 44.2656 56.8505C44.3092 56.894 45.2791 56.7635 46.4342 56.5677C47.5893 56.361 49.1694 56.0782 49.9431 55.9477C52.1988 55.5561 53.6699 55.4365 55.6532 55.5017C57.4513 55.5561 57.9525 55.6214 57.9525 55.8063C57.9525 56.013 56.4487 57.1115 55.5987 57.5357C54.2584 58.1775 52.1007 58.7213 50.1392 58.8954C48.9623 58.9933 46.7938 58.7213 45.9438 58.3515C45.5188 58.1775 45.7695 58.6561 46.456 59.3196C47.6329 60.4834 49.954 61.4624 53.0379 62.0932C55.2173 62.5501 58.6282 62.5718 61.1127 62.1476C62.8781 61.8539 64.9594 61.0925 66.1908 60.3094C66.703 59.9722 66.8773 59.9287 67.4767 59.9287C68.2177 59.9287 69.6016 59.6133 70.1792 59.3196C70.3753 59.2217 70.8657 58.8084 71.258 58.4168C71.8791 57.7968 71.999 57.5901 72.2279 56.9049C72.5875 55.7737 72.5112 54.6316 71.9881 53.4242L71.6067 52.5541L72.0753 52.3365C73.8515 51.4773 74.2874 49.6499 73.1541 47.8552C73.0016 47.605 72.8817 47.3875 72.9035 47.3657C72.9253 47.344 73.1323 47.3657 73.3721 47.4093L73.8079 47.4745L73.8842 48.4317C73.9605 49.5303 74.2329 50.1829 74.7996 50.6832C75.1701 51.0095 75.181 51.0204 75.1156 51.6404C74.9848 52.826 75.5515 54.3162 76.6739 55.6975C77.3168 56.4916 78.1559 57.1986 78.2867 57.068C78.3303 57.0354 78.2322 56.5459 78.0797 55.9912C77.6438 54.4576 77.5566 53.7505 77.4585 51.499C77.3713 49.3019 77.2515 48.7362 76.5214 47.2896C76.3797 47.0068 76.2598 46.7566 76.2598 46.7349C76.2598 46.7022 76.5649 46.6261 76.9354 46.55C77.3059 46.4847 77.7963 46.3216 78.0252 46.2128L78.4393 46.0061L79.0713 46.637C79.42 46.985 79.8559 47.3331 80.052 47.4093C80.2918 47.5071 80.3899 47.6159 80.3572 47.7356C80.0956 48.6819 80.2373 50.0524 80.6841 50.9334C81.4796 52.4888 83.7789 53.8593 85.882 54.0225C86.5795 54.0769 86.7429 54.0551 86.6993 53.9463C86.6775 53.8702 86.1 53.4677 85.4244 53.0653C84.1821 52.3148 83.3757 51.7274 82.9398 51.2597C82.7219 51.0095 82.711 50.9116 82.7654 50.0306C82.809 49.4541 82.7763 48.8015 82.7001 48.4099C82.6238 48.051 82.5584 47.4636 82.5366 47.1264C82.5148 46.637 82.3949 46.278 82.0135 45.5167C81.2725 44.0483 81.2725 44.0918 81.8937 44.0047C82.177 43.9612 82.602 43.8742 82.8308 43.809C83.2122 43.6893 83.2558 43.7002 83.6263 44.0809C83.8334 44.2875 84.1603 44.5268 84.3237 44.5921L84.6398 44.7226L84.5744 45.7233C84.4327 47.9313 85.3154 49.4976 87.3859 50.7159C88.2031 51.1945 89.5435 51.6404 90.4371 51.7383C91.1563 51.8144 91.2762 51.6839 90.7858 51.3685C89.6852 50.6941 88.5628 49.8892 87.9961 49.378L87.3423 48.7798L87.4839 47.8443C87.6692 46.6261 87.582 44.7009 87.3205 44.0591C87.2115 43.7981 87.0045 43.4609 86.8628 43.3086C86.732 43.1563 86.6122 43.0041 86.6122 42.9497C86.6122 42.9062 86.1218 42.3406 85.5224 41.6879C84.9231 41.0462 84.4327 40.4806 84.4327 40.4262C84.4327 40.3827 84.6289 40.3501 84.8686 40.3501C85.3808 40.3501 86.0128 40.1108 86.3615 39.7953L86.5904 39.5669L86.8846 40.1869C87.157 40.7416 87.3859 40.9809 88.1705 41.4922C88.3121 41.5792 88.323 41.6988 88.2249 42.2209C88.0724 43.0149 88.2467 44.0918 88.6717 44.9946C89.1294 45.93 90.339 46.985 91.7011 47.605C92.2569 47.8661 92.3877 47.877 93.3466 47.8226C94.9267 47.7247 94.9703 47.431 93.4883 46.9307C92.3768 46.5608 91.4614 46.017 91.4723 45.7342C91.4832 45.6145 91.5486 45.1251 91.6249 44.6574C91.8537 43.0802 91.5159 41.5574 90.6877 40.4915C90.4262 40.1543 89.6634 39.3059 89.0095 38.5989C87.6147 37.1087 87.266 36.9129 86.1545 37.0108C85.7731 37.0435 85.3699 37.0978 85.2391 37.1414C85.0212 37.2066 85.0103 37.1631 84.934 36.3365C84.8686 35.5642 84.8904 35.401 85.0974 35.0095C85.4789 34.2481 85.6314 33.5954 85.6314 32.6491C85.6314 31.9421 85.675 31.6702 85.8276 31.4527C86.1763 30.9632 86.5795 29.9952 86.7538 29.2555C87.1461 27.6457 87.1025 26.5036 86.5577 24.6328C86.307 23.7735 86.2852 23.5995 86.3942 23.1644C86.4705 22.8925 86.5468 22.1093 86.5795 21.4241C86.634 20.3799 86.6013 20.0209 86.416 19.2704C86.1436 18.2045 85.7622 17.4105 85.1955 16.747C84.7487 16.2031 84.5308 15.4743 84.3237 13.7014C84.2475 13.0488 84.1167 12.5811 83.8879 12.1242C83.5065 11.3737 83.3321 11.1562 82.3623 10.3078C81.7956 9.8183 81.6103 9.579 81.4469 9.11129C81.327 8.79586 81.0328 8.12149 80.7822 7.61027C79.9649 5.96784 78.4611 4.85838 76.663 4.5647C76.2271 4.48856 75.8348 4.39067 75.7694 4.34716C75.715 4.30366 75.1701 4.02085 74.5708 3.7163C73.0669 2.96578 72.4131 2.79175 70.9747 2.78087C69.8959 2.77 69.7106 2.80263 69.1766 3.0528C68.8497 3.20508 68.3485 3.56402 68.076 3.84682C67.6292 4.31453 67.4658 4.39067 66.5504 4.64084C65.2754 4.97803 64.3928 4.99978 63.7062 4.69523C62.9979 4.37979 61.7883 3.56402 61.3416 3.10718C61.1345 2.88964 60.9166 2.71561 60.873 2.71561C60.8294 2.71561 60.7858 2.97666 60.7858 3.30297ZM73.1541 3.69454C73.906 3.98822 75.2682 4.804 75.0829 4.86926C75.0175 4.89101 74.5708 4.78225 74.0804 4.62997C72.849 4.23839 71.8356 4.09699 70.4843 4.15138C69.6125 4.17313 69.2529 4.23839 69.035 4.37979C68.8715 4.48856 68.7408 4.52119 68.7408 4.47769C68.7408 4.26015 69.242 3.7598 69.6561 3.56402C70.2991 3.27034 72.217 3.3356 73.1541 3.69454ZM67.5421 5.31522C67.5421 5.35872 67.1716 5.511 66.7139 5.65241C66.06 5.83731 65.7004 5.88082 65.0466 5.84819C64.5889 5.82643 64.1203 5.73942 64.0005 5.67416C63.8261 5.57627 63.946 5.54363 64.6543 5.53276C65.1338 5.52188 65.8421 5.45662 66.2344 5.38048C67.1171 5.21732 67.5421 5.19557 67.5421 5.31522ZM77.9598 5.76117C79.3328 6.38116 80.1065 7.14256 80.4008 8.16499C80.4988 8.4913 80.4443 8.45867 79.6597 7.6864C78.8969 6.93589 77.9271 6.10924 77.2297 5.63065C76.8156 5.33697 77.1752 5.40223 77.9598 5.76117ZM81.436 10.2099C82.7328 10.9495 83.4302 12.0481 83.7135 13.7558C84.0731 15.9312 84.0949 15.7789 83.4193 15.4961C83.0706 15.3547 82.9943 15.2459 82.809 14.6586C82.4494 13.5382 82.3187 13.2228 82.0571 12.8639C81.8828 12.6137 81.8501 12.5049 81.9482 12.4723C82.0462 12.4288 82.0353 12.407 81.9264 12.407C81.8392 12.3962 81.6975 12.2874 81.6103 12.146C81.5014 11.9611 81.4905 11.9393 81.6103 12.0372C81.7738 12.2004 81.9699 12.2221 81.8828 12.0807C81.8392 12.0263 81.861 11.8414 81.9264 11.6891C82.0244 11.4281 81.9917 11.3302 81.7411 10.993C81.5777 10.7755 81.2834 10.4383 81.0873 10.2425C80.6405 9.80742 80.7277 9.80742 81.436 10.2099ZM81.8501 11.4934C81.7738 11.526 81.752 11.6239 81.7847 11.7218C81.8283 11.8632 81.8174 11.8741 81.7193 11.787C81.5668 11.6456 81.6866 11.2758 81.8501 11.3846C81.9373 11.439 81.9373 11.4716 81.8501 11.4934ZM78.047 11.6891C78.0905 11.8632 78.1668 11.9393 78.2431 11.8958C78.3194 11.8414 78.3303 11.8632 78.2758 11.9502C78.1886 12.1025 78.4284 12.6354 78.5591 12.5593C78.6027 12.5267 78.6136 12.6137 78.5809 12.7442C78.5482 12.9291 78.5591 12.9509 78.6354 12.853C78.7008 12.7442 78.7553 12.8421 78.788 13.1793C78.8969 14.0712 79.5726 15.1372 80.4008 15.6919C80.5969 15.8333 80.6296 15.9094 80.5424 15.9964C80.161 16.3771 78.5373 14.9414 78.1232 13.8645C77.8508 13.1467 77.6765 11.4172 77.8617 11.4172C77.9271 11.4172 78.0143 11.5369 78.047 11.6891ZM81.3488 11.5804C81.3488 11.6674 81.3052 11.7435 81.2507 11.7435C81.1418 11.7435 81.1309 11.5913 81.2398 11.4934C81.3379 11.3846 81.3488 11.3955 81.3488 11.5804ZM83.6808 16.4315C84.4218 16.8013 85.2827 17.7041 85.7077 18.5743C86.0019 19.1725 86.0128 19.2595 86.0019 20.7171C86.0019 21.5546 85.9474 22.3486 85.8929 22.49C85.784 22.7293 85.7731 22.7184 85.468 22.1637C84.5635 20.4669 84.2366 20.0318 82.918 18.7157C82.1661 17.9761 81.5341 17.4213 81.5232 17.4757C81.4251 17.7694 82.0462 20.0644 82.4058 20.7388C82.6238 21.1413 82.7872 21.4676 82.7654 21.4785C82.7545 21.4893 82.4494 21.5546 82.0898 21.6307C81.3052 21.783 81.3161 21.7939 80.8257 20.5213C80.4008 19.4118 80.2591 18.596 80.3463 17.8347C80.4988 16.6056 80.8693 16.1922 81.9264 16.0835C82.6892 16.0073 82.9289 16.0508 83.6808 16.4315ZM84.1712 22.6749C85.1083 23.2623 85.6096 23.8061 86.0564 24.7307C86.7538 26.1882 86.7756 27.2324 86.1218 29.212C85.566 30.9088 85.4571 30.9523 85.4462 29.5057C85.4462 27.4826 85.0321 26.3622 83.55 24.3935C83.136 23.8388 82.7981 23.3275 82.7981 23.2514C82.7981 23.0012 82.6129 23.3275 82.3623 24.0237C82.068 24.8612 81.2725 26.2317 80.8039 26.7321C80.477 27.0692 79.8777 27.4717 79.8014 27.3847C79.7905 27.3629 79.8668 26.7864 79.9867 26.1012C80.3681 23.7844 81.011 22.6314 82.0898 22.3486C83.027 22.0984 83.3103 22.142 84.1712 22.6749ZM82.6238 28.059C82.8417 28.2113 83.1686 28.5485 83.343 28.7987C83.6481 29.2555 84.1712 30.6369 84.084 30.7239C84.0622 30.7565 83.7244 30.6043 83.3321 30.3976C82.9398 30.1909 82.3296 29.9516 81.9808 29.8538C80.8475 29.5601 78.7117 29.6688 77.6438 30.0713C77.4258 30.1583 77.1861 30.2345 77.1316 30.2345C76.9245 30.2345 77.3277 29.6471 77.8617 29.1467C78.679 28.3745 78.8098 28.2766 79.4963 27.9938C80.0411 27.7654 80.27 27.7327 81.1745 27.7545C82.0789 27.7871 82.2642 27.8198 82.6238 28.059ZM79.5835 30.3541C80.9238 30.6043 82.1225 31.5071 82.6783 32.6927C82.9289 33.2256 82.9289 33.3888 82.6674 33.1386C82.384 32.8449 81.0437 31.9748 80.5315 31.7464C80.2591 31.6158 79.4418 31.3765 78.7117 31.2025C77.9925 31.0285 77.2624 30.8436 77.0771 30.7892L76.7502 30.7022L77.0771 30.5608C77.8726 30.2236 78.57 30.1692 79.5835 30.3541ZM78.886 31.5723C80.2155 31.9965 81.0982 32.7362 82.0571 34.2589C82.5802 35.0638 83.1577 36.2277 83.0815 36.3038C83.0488 36.3365 82.7872 36.1407 82.5039 35.8796C80.477 33.9979 77.0117 32.0835 75.6496 32.0835C75.4534 32.0835 75.2682 32.04 75.2355 31.9856C75.1701 31.8878 75.715 31.4309 76.0419 31.2895C76.3797 31.1372 78.0688 31.3113 78.886 31.5723ZM75.8784 32.5186C76.663 32.6491 77.8835 33.2256 78.5264 33.7695C79.3001 34.433 80.2046 35.9014 80.6296 37.1957L80.8257 37.794L80.5424 37.4133C80.0194 36.7389 78.5046 35.2923 77.8726 34.8789C77.0989 34.3677 75.9329 33.7804 75.2355 33.5519C74.5817 33.3453 73.0778 33.1277 72.7073 33.2039C72.2823 33.28 72.4131 33.0625 72.9362 32.8341C73.7426 32.4751 74.8759 32.3555 75.8784 32.5186ZM73.9823 33.7586C74.9957 33.9435 76.0528 34.4439 76.6739 35.053C77.6438 35.9993 78.6354 38.2508 78.7226 39.6975C78.7662 40.3066 78.7553 40.3609 78.6463 40.1325C77.7636 38.2834 77.4694 37.8592 76.1944 36.6628C75.2355 35.7491 74.3201 35.0856 73.6445 34.781C72.6637 34.3568 72.4676 34.3133 71.2798 34.3133C70.6042 34.3133 70.0484 34.3025 70.0484 34.2916C70.0484 34.1937 71.4542 33.7804 72.0099 33.7151C73.0234 33.5954 73.0669 33.5954 73.9823 33.7586ZM68.5664 33.9326C68.8497 34.0305 68.9587 34.2589 68.7299 34.2589C68.6645 34.2589 68.4683 34.3568 68.294 34.4874C67.7818 34.8572 67.0517 34.8028 66.3761 34.3568C66.06 34.1502 65.7985 33.9544 65.7985 33.9C65.7985 33.7804 68.2395 33.8021 68.5664 33.9326ZM64.6652 34.3133C64.7088 34.4003 64.6979 34.6505 64.6652 34.8681C64.5998 35.1617 64.5126 35.2814 64.2402 35.401C63.8697 35.5533 63.6627 35.5098 63.8152 35.314C63.8697 35.2379 63.9787 35.0095 64.055 34.8028C64.3056 34.1611 64.5344 33.9761 64.6652 34.3133ZM65.8094 34.4982C66.0491 34.6288 66.2344 34.7593 66.2344 34.8028C66.2344 34.8354 66.0491 34.9333 65.8312 35.0203C65.6024 35.1074 65.3844 35.1944 65.3408 35.2161C65.2863 35.2379 65.2536 35.0312 65.2536 34.7593C65.2536 34.4874 65.2863 34.2589 65.319 34.2589C65.3626 34.2589 65.5806 34.3677 65.8094 34.4982ZM63.6191 34.8028C63.412 34.9768 63.0415 35.2814 62.8127 35.4772C62.0935 36.0754 60.8948 36.6845 60.8948 36.4452C60.8948 36.1951 61.7012 35.3575 62.2024 35.0856C63.3139 34.4765 64.2184 34.3025 63.6191 34.8028ZM72.4567 34.6723C73.9278 35.0638 75.1592 36.108 75.9983 37.707C76.3906 38.4248 77.0226 39.9911 77.0226 40.2087C77.0226 40.2522 76.8374 40.0673 76.6194 39.7953C75.813 38.849 74.1894 37.3045 73.4048 36.7607C72.1952 35.9014 70.517 35.2052 69.0786 34.966C68.6645 34.9007 68.6209 34.8681 68.8061 34.7702C69.3292 34.4765 71.4651 34.4221 72.4567 34.6723ZM69.5036 35.3031C70.3099 35.5316 71.5849 36.2277 72.4131 36.8912C73.5246 37.794 74.3964 39.2406 74.7996 40.8504L74.9848 41.5792L74.6688 41.8293L74.3528 42.0795L74.0586 41.4378C73.3612 39.8932 71.9772 38.2182 70.6478 37.3045C69.558 36.554 67.8036 35.7926 66.6376 35.5642C66.2889 35.488 66.0165 35.4119 66.0382 35.3902C66.0709 35.3684 66.3761 35.2814 66.7357 35.1835C67.4767 34.9986 68.5773 35.053 69.5036 35.3031ZM58.9333 35.9884C58.9333 36.3147 58.541 36.9782 58.1051 37.3915C57.9634 37.5329 57.8436 37.6308 57.8436 37.6091C57.8545 37.5329 58.5628 35.8252 58.6391 35.6947C58.7807 35.488 58.9333 35.6512 58.9333 35.9884ZM58.1487 35.8035C58.116 35.8796 57.9307 35.9666 57.7237 36.0101C57.5166 36.0428 57.2442 36.1298 57.1025 36.2059C56.7865 36.38 56.1872 37.3045 55.9256 38.0333C55.8167 38.3487 55.6423 38.7185 55.5333 38.849C55.3481 39.0992 55.3372 39.0883 55.4026 38.5554C55.5333 37.4133 55.7404 36.9129 56.2853 36.4452C56.9064 35.8905 58.2685 35.4228 58.1487 35.8035ZM66.5286 35.9558C67.9235 36.2386 69.6125 37.2392 70.4952 38.3052C71.258 39.2189 72.1189 40.5676 71.9554 40.5676C71.9118 40.5676 71.5849 40.3501 71.2144 40.089C68.8061 38.3813 66.8555 37.707 63.946 37.5656C62.671 37.5003 60.8294 37.6743 60.2082 37.9027C60.1102 37.9463 60.023 37.9354 60.023 37.8701C60.023 37.7396 61.2435 36.9564 61.7121 36.7824C61.8973 36.7172 62.355 36.5322 62.7364 36.38C63.4774 36.0645 64.6107 35.8035 65.2863 35.7926C65.5152 35.7817 66.0709 35.8579 66.5286 35.9558ZM53.2667 37.1849C53.3212 37.3045 53.3757 37.5003 53.3757 37.6199C53.3757 37.8484 52.2424 39.1427 52.1334 39.034C52.1007 39.0013 52.2642 38.5662 52.5039 38.0768C52.7437 37.5873 52.9398 37.1414 52.9398 37.087C52.9398 36.9021 53.1469 36.9673 53.2667 37.1849ZM52.5039 37.2719C52.5039 37.6199 52.3514 37.6852 51.6648 37.707C50.902 37.7178 50.5097 37.9027 49.8995 38.5445C49.529 38.9252 49.1694 39.0666 49.2566 38.7947C49.3219 38.6097 50.2918 37.8919 50.8476 37.6199C51.2399 37.4242 52.1334 37.1305 52.4276 37.0978C52.4712 37.087 52.5039 37.174 52.5039 37.2719ZM88.2358 38.4575C88.6935 38.9361 89.2602 39.6431 89.4781 40.0129C89.9358 40.7852 89.9249 40.7852 88.8134 40.2848C88.0397 39.9367 87.4077 39.4364 87.1679 38.9469C86.9282 38.4792 86.6122 37.4568 86.6775 37.3806C86.841 37.2284 87.5057 37.6852 88.2358 38.4575ZM86.209 38.0115C86.1763 39.0775 85.4897 39.4799 84.0949 39.2515C83.3757 39.1427 83.2013 39.1427 82.7436 39.295C82.0353 39.5343 81.8937 39.5343 82.0244 39.2841C82.2424 38.8708 82.8635 38.3813 83.4411 38.1638C84.1603 37.8919 85.9692 37.4242 86.1218 37.4677C86.1872 37.4785 86.2199 37.7287 86.209 38.0115ZM64.4364 38.2834C65.3953 38.5119 67.019 39.1318 67.7164 39.5343C68.1523 39.7953 68.8497 40.4806 68.8497 40.6655C68.8497 40.8178 66.7248 41.5465 65.6459 41.7641C63.1396 42.2753 57.3314 42.4385 55.3372 42.0578C54.7705 41.949 54.2584 41.8185 54.2148 41.775C54.1603 41.7206 54.3347 41.5357 54.5962 41.3508C54.8468 41.1658 55.2609 40.8395 55.5007 40.622C57.9198 38.4357 61.3525 37.5438 64.4364 38.2834ZM57.6365 38.1747C57.7455 38.2399 57.8436 38.3487 57.8436 38.4248C57.8436 38.5336 57.1788 39.0448 57.0263 39.0448C56.95 39.0448 56.9609 38.2182 57.0481 38.142C57.1461 38.0333 57.3859 38.0441 57.6365 38.1747ZM49.1258 39.3168C49.2348 39.4582 49.2239 39.5234 49.0604 39.7301C48.7553 40.0999 48.5591 40.2413 48.4611 40.176C48.3085 40.089 48.3412 39.8932 48.5809 39.5017C48.8207 39.1101 48.9296 39.0775 49.1258 39.3168ZM51.6322 39.2624C51.6322 39.3168 51.7847 39.3711 51.9591 39.3711C52.2751 39.3711 52.286 39.382 52.286 39.8932C52.286 40.2304 52.3732 40.6002 52.5475 40.9266C52.6783 41.2094 52.7764 41.4486 52.7546 41.4704C52.7328 41.4922 52.4821 41.4051 52.1988 41.2637C51.9155 41.1223 51.327 40.9048 50.902 40.7634C50.4662 40.6329 50.1065 40.4915 50.1065 40.4588C50.1065 40.4262 50.3681 40.1217 50.695 39.7736C51.2181 39.208 51.6322 38.9796 51.6322 39.2624ZM52.8744 39.5561C52.9071 39.6648 52.9616 39.9911 53.0052 40.2957C53.0597 40.7199 53.0488 40.8069 52.9398 40.7199C52.7546 40.535 52.5257 39.8062 52.5802 39.5778C52.6565 39.3168 52.7982 39.3168 52.8744 39.5561ZM82.6892 40.0781C82.6892 40.2304 81.8174 41.0027 81.6321 41.0027C81.2289 41.0027 80.1501 41.3399 79.8341 41.5574C79.5944 41.7315 79.4309 41.7641 79.1476 41.7206C78.9405 41.6771 78.7662 41.6009 78.7662 41.5574C78.7662 41.3943 79.5399 40.8722 80.1174 40.6437C81.3052 40.176 82.6892 39.8715 82.6892 40.0781ZM83.8661 40.448C84.3346 40.8178 85.7404 42.4058 85.7404 42.569C85.7404 42.6016 85.8929 42.8518 86.0782 43.1346C86.4814 43.7219 86.4051 43.8416 85.6641 43.7872C84.8577 43.7219 83.1795 42.5364 82.918 41.8293C82.7328 41.3508 82.7654 40.4915 82.9834 40.2413C83.0924 40.1217 83.2122 40.0238 83.2449 40.0238C83.2885 40.0238 83.5718 40.2195 83.8661 40.448ZM44.7124 40.6002V41.0136L43.7862 41.4051C42.7945 41.8293 41.7702 42.4602 41.2035 42.9932L40.8548 43.3195L40.3209 42.83C40.0266 42.5581 39.6779 42.2971 39.5472 42.2535C39.3401 42.1883 39.3292 42.1557 39.4491 42.0034C39.6561 41.7532 40.9638 40.9266 41.574 40.6655C42.3913 40.3174 43.2304 40.1434 44.0041 40.1652L44.7124 40.1869V40.6002ZM49.3873 41.0571C49.9431 41.2094 51.8392 41.9707 52.6565 42.3841L52.9725 42.5472L52.5148 42.7648C51.5886 43.189 50.7386 43.3304 49.8123 43.2107C48.5156 43.0367 47.4585 42.5799 46.7393 41.8837L46.14 41.3072L46.4124 41.1006C46.6194 40.9374 46.8701 40.8939 47.7092 40.8939C48.2976 40.8939 49.0277 40.9701 49.3873 41.0571ZM90.7858 41.8402C91.0691 42.482 91.2108 43.2869 91.1236 43.7763L91.0364 44.2114L90.9601 43.5153C90.8621 42.6995 90.5678 42.3297 89.8159 42.0143L89.3365 41.8185L89.8595 41.6444C90.5896 41.3943 90.5896 41.3943 90.7858 41.8402ZM35.428 41.8185C35.9402 41.9055 36.4742 42.0251 36.6158 42.0795C38.0542 42.6342 38.5337 42.917 38.9151 43.4174C39.3946 44.0483 39.3946 44.0483 37.9017 44.0918C35.9729 44.157 34.3056 44.603 32.2351 45.6145C30.7095 46.3651 27.7891 48.1271 27.909 48.2468C27.9307 48.2685 28.3884 48.1924 28.9224 48.0727C29.8922 47.8552 31.1454 47.7791 31.1454 47.9313C31.1454 47.9857 30.8403 48.1598 30.4589 48.3338C29.0532 48.9864 27.8327 50.2482 27.484 51.4229C27.1353 52.565 27.375 54.4249 28.007 55.4474C28.1269 55.6431 28.2032 55.8281 28.1705 55.8607C28.0942 55.9477 26.5795 55.1646 26.0782 54.7839C25.0539 53.9898 24.2911 52.9021 23.9315 51.7383C23.1578 49.1931 24.7379 45.7995 27.7019 43.6132C29.2793 42.6207 28.6729 42.9405 29.5871 42.5146C31.3477 41.7158 33.5324 41.4861 35.428 41.8185ZM78.1995 42.0578C78.1668 42.1121 78.0796 42.2971 78.0034 42.4928L77.8508 42.83L76.5867 42.8735C75.3662 42.9062 75.29 42.917 74.7342 43.2651C74.4182 43.4609 74.1458 43.6023 74.124 43.5805C74.0368 43.5044 74.5054 42.6778 74.7669 42.4385C74.9086 42.2971 75.1701 42.1448 75.3445 42.0904C75.7368 41.9816 78.254 41.949 78.1995 42.0578ZM79.1585 42.4276C80.0303 42.9606 81.3052 44.7661 81.5559 45.8103C81.6212 46.0823 81.5994 46.104 81.3052 46.0496C80.5533 45.9191 80.0085 45.7668 79.6706 45.6145C78.8207 45.2012 78.1668 43.6023 78.4502 42.6342C78.6027 42.1339 78.6572 42.1121 79.1585 42.4276ZM54.3891 42.9823C54.9885 43.5805 55.9801 44.1026 56.9282 44.3311C57.6801 44.5051 58.2468 44.5051 60.764 44.3093C61.3307 44.2658 61.6576 44.2767 61.6576 44.3419C61.6576 44.4072 61.4505 44.6465 61.189 44.8858C60.655 45.3752 59.8159 45.7233 58.6064 45.9626C57.2878 46.2237 56.1327 46.5391 55.5333 46.8219C55.2282 46.9633 54.934 47.0612 54.9013 47.0394C54.8577 47.0177 54.8686 46.7566 54.9122 46.4738C54.9558 46.191 54.9994 45.6254 54.9994 45.2121C55.0103 44.3528 54.9885 44.3528 54.0622 44.7661C53.3648 45.0816 51.5232 45.2774 51.5232 45.0489C51.5232 44.8096 52.5911 43.5479 53.2231 43.0476C53.5719 42.7756 53.877 42.5363 53.8988 42.5363C53.9097 42.5255 54.1385 42.7321 54.3891 42.9823ZM72.8817 44.429C73.4374 44.4942 74.3092 44.8858 74.7778 45.2665C75.1592 45.5819 75.1265 45.9191 74.6688 46.3651C74.222 46.811 73.8406 46.7566 73.1759 46.1584C72.3804 45.4405 71.8574 45.2012 71.0837 45.2012C70.724 45.1903 70.2337 45.2338 70.0048 45.2774L69.5798 45.3752L69.7433 45.1142C70.0048 44.7226 70.5824 44.4398 71.2471 44.3637C71.8465 44.3093 71.9445 44.3093 72.8817 44.429ZM87.0263 44.5377C86.9936 44.7009 87.0154 44.777 87.0807 44.7335C87.2333 44.6465 87.1134 47.3114 86.9609 47.5942C86.841 47.7899 86.841 47.7791 86.8301 47.5289C86.8301 47.2679 86.3724 45.3644 86.2308 45.0163C86.1872 44.8858 86.2526 44.7988 86.4923 44.7118C86.6666 44.6356 86.841 44.5051 86.8737 44.4181C86.9718 44.1679 87.0807 44.244 87.0263 44.5377ZM68.719 45.6363C69.3292 45.8103 70.0484 46.2454 70.0484 46.4521C70.0484 46.5065 69.7978 46.55 69.4927 46.55C68.8824 46.55 67.7927 46.8001 67.2696 47.0612C67.0953 47.1482 66.6921 47.4745 66.387 47.7682L65.8203 48.312L65.0466 48.1271C64.2075 47.9205 64.2293 47.9531 64.5017 47.2352C64.6652 46.8001 65.4934 46.0061 66.06 45.7342C66.7357 45.4079 67.7927 45.3752 68.719 45.6363ZM51.6104 46.104C51.6539 46.1149 51.2725 46.2889 50.7713 46.4847C50.27 46.6914 49.6053 47.0286 49.3002 47.2461C49.0059 47.4528 48.7335 47.605 48.7117 47.5833C48.6463 47.518 49.1912 46.8872 49.5399 46.6152C50.0303 46.2237 50.9892 45.9844 51.6104 46.104ZM92.1043 46.9415C92.3223 46.9959 92.3659 47.0394 92.2569 47.1047C92.0608 47.2352 91.93 47.2243 92.0063 47.0829C92.0499 47.0177 92.0063 46.985 91.8973 47.0068C91.7774 47.0286 91.6685 46.9415 91.614 46.7675C91.5268 46.5282 91.5377 46.5173 91.6576 46.6805C91.7338 46.7784 91.9409 46.898 92.1043 46.9415ZM70.4298 47.1047C71.8138 47.3549 72.7727 48.1271 73.0342 49.1822C73.1214 49.5411 73.1432 49.5411 71.9554 49.3236C70.942 49.1387 69.8523 49.1169 69.4491 49.2692C69.1875 49.3671 69.1766 49.4106 69.2311 49.8131C69.2638 50.0524 69.2638 50.2482 69.2202 50.2482C69.1875 50.2482 68.9696 50.0959 68.7408 49.9218C68.5119 49.7369 67.8908 49.3671 67.3568 49.0843C66.8337 48.8124 66.3761 48.5622 66.3543 48.5405C66.2453 48.4534 66.9972 47.8987 67.6074 47.6159C68.1305 47.3657 69.133 47.0721 69.7324 46.9959C69.7651 46.985 70.0811 47.0394 70.4298 47.1047ZM39.9722 47.8117C39.6452 48.138 39.2856 48.4643 39.1658 48.5296C39.0568 48.584 39.3074 48.312 39.7106 47.9205C40.626 47.0503 40.7785 46.985 39.9722 47.8117ZM75.8348 48.7471C75.8348 49.7261 75.7368 50.259 75.5188 50.4004C75.2573 50.5636 74.3637 49.0952 74.2329 48.312L74.1676 47.8878L74.6906 47.9313C75.1592 47.9749 75.2573 47.9422 75.4425 47.7138C75.7477 47.3331 75.8239 47.5289 75.8348 48.7471ZM82.2533 49.378C82.2533 50.0959 82.2097 50.6832 82.1552 50.6832C81.9917 50.6832 81.6975 49.7369 81.6321 48.9647C81.5668 48.138 81.5232 48.2033 82.177 48.0836C82.2206 48.0836 82.2533 48.6601 82.2533 49.378ZM65.2101 49.3889C67.5748 49.998 69.2529 51.3902 69.667 53.0762C69.7433 53.3807 70.1247 53.2611 66.2344 54.1095C63.6082 54.686 61.7121 55.393 60.4044 56.2849C60.1756 56.4372 59.9576 56.5568 59.9249 56.5568C59.8922 56.5568 59.8595 56.0782 59.8486 55.4909C59.8486 54.2183 59.6852 53.8376 59.0205 53.5004C58.1051 53.0327 55.6859 53.0653 53.4084 53.5656C51.1418 54.066 47.1534 55.1863 46.6085 55.48C46.4778 55.5453 46.4015 55.5453 46.4015 55.48C46.4015 55.3495 48.1995 54.0007 49.1258 53.4351C50.4879 52.6193 52.5039 51.6513 54.2475 51.0095C55.2064 50.6506 56.0673 50.3569 56.1654 50.3569C56.2526 50.3569 56.4269 50.3134 56.5359 50.2482C56.6449 50.1938 57.3859 49.998 58.1923 49.8131C61.2326 49.1387 63.6736 48.9864 65.2101 49.3889ZM87.4839 49.7478C87.4839 49.8348 87.582 49.9327 87.7019 49.9762C87.8217 50.0089 87.9089 50.1067 87.8871 50.172C87.8762 50.2482 87.9307 50.2917 88.007 50.2699C88.0942 50.259 88.1269 50.2917 88.0833 50.3569C87.9852 50.5092 87.5493 50.1938 87.3968 49.8675C87.3205 49.7043 87.3096 49.5955 87.375 49.5955C87.4403 49.5955 87.4839 49.6608 87.4839 49.7478ZM88.4756 50.5418C88.6063 50.7159 88.6063 50.7267 88.4538 50.6071C88.3557 50.531 88.2358 50.5092 88.1923 50.5527C88.1378 50.5962 88.1378 50.5636 88.1814 50.4874C88.2794 50.3134 88.3012 50.3243 88.4756 50.5418ZM75.9547 51.4446C75.8893 51.6187 75.8021 52.0755 75.7585 52.4562C75.6932 52.9892 75.6605 53.0762 75.5951 52.8586C75.5515 52.7064 75.5188 52.2822 75.5079 51.9015C75.497 51.2923 75.5188 51.2053 75.7477 51.1292C76.0637 51.0095 76.0855 51.0422 75.9547 51.4446ZM84.3782 53.1632C84.3019 53.2393 83.5827 52.8151 83.4738 52.6302C83.3757 52.4779 83.4847 52.5214 83.877 52.7716C84.1712 52.9674 84.4 53.1414 84.3782 53.1632ZM71.5304 54.0769C71.8247 55.0558 71.8029 56.5677 71.4977 57.1551C71.258 57.601 70.7458 58.134 70.2664 58.4277C69.9394 58.6235 68.7299 59.0803 68.6754 59.0259C68.6536 59.0041 68.9478 58.6778 69.3292 58.2863C70.3971 57.1877 71.1381 55.3821 71.1381 53.8376C71.1381 53.2067 71.3016 53.3046 71.5304 54.0769ZM57.8436 57.96C57.8436 58.6778 57.8327 58.7105 57.5493 58.8192C56.9064 59.0585 56.1109 59.2761 55.0103 59.5045C53.5827 59.7982 50.7386 59.8526 49.4527 59.6024L48.6354 59.4501L50.2155 59.374C52.9725 59.2543 55.2064 58.6887 56.8737 57.6989C57.3205 57.4379 57.7128 57.2203 57.7673 57.2203C57.8109 57.2094 57.8436 57.5466 57.8436 57.96Z" fill="black"/>
<path d="M82.079 11.8633C82.0354 11.9394 82.0463 11.9612 82.1226 11.9177C82.177 11.885 82.2642 11.9177 82.286 11.9829C82.3296 12.0808 82.3514 12.0917 82.3514 11.9938C82.3623 11.8089 82.177 11.7219 82.079 11.8633Z" fill="black"/>
<path d="M82.3949 12.3635C82.3949 12.4832 82.4712 12.5811 82.5475 12.5811C82.6564 12.5811 82.6564 12.5375 82.5583 12.407C82.4821 12.3091 82.4167 12.2112 82.3949 12.1895C82.384 12.1677 82.384 12.2439 82.3949 12.3635Z" fill="black"/>
<path d="M82.6454 13.0161C82.5801 13.1684 82.591 13.1793 82.6999 13.0814C82.7762 13.0053 82.8089 12.9182 82.7762 12.8856C82.7435 12.853 82.6781 12.9074 82.6454 13.0161Z" fill="black"/>
<path d="M82.809 13.4403C82.809 13.5599 82.8417 13.5925 82.8744 13.5055C82.9071 13.4294 82.8962 13.3315 82.8635 13.2989C82.8308 13.2554 82.7981 13.3206 82.809 13.4403Z" fill="black"/>
<path d="M88.9115 39.6649C88.9878 39.7954 89.075 39.8824 89.1077 39.8498C89.1404 39.8281 89.075 39.7193 88.966 39.6105C88.7808 39.4365 88.7699 39.4365 88.9115 39.6649Z" fill="black"/>
<path d="M72.6965 9.42671L72.4458 9.47022L72.424 18.4655L72.3913 27.4608L71.1382 27.7001C70.4516 27.8306 69.7978 27.9394 69.6888 27.9394C69.4927 27.9503 69.4927 27.624 69.5254 19.4771L69.5581 11.0039L69.9831 10.3948C70.2119 10.0576 70.3862 9.7639 70.3645 9.73127C70.3427 9.70952 69.9722 9.78566 69.5581 9.9053C69.1331 10.025 68.2068 10.2099 67.4876 10.3078L66.1799 10.5035L66.2235 20.1732C66.2671 31.2134 66.2017 30.4955 67.1716 31.0611C68.076 31.5941 69.0568 31.5288 72.3804 30.713C74.1894 30.2779 74.6362 29.9625 75.3118 28.6681L75.6605 28.0047L75.6932 19.8686L75.715 11.7218L75.1156 11.0691C74.7778 10.7102 74.3855 10.1772 74.2439 9.88355C73.9714 9.35058 73.9605 9.35058 73.4484 9.36145C73.165 9.37233 72.8272 9.40496 72.6965 9.42671Z" fill="black"/>
<path d="M53.1687 10.1337L49.856 10.8081L49.9322 23.1535C49.9649 29.9408 50.0194 35.5098 50.0303 35.5207C50.0521 35.5424 52.8636 34.9442 53.1796 34.8463C53.354 34.7919 53.3758 34.4547 53.3975 30.2018L53.4302 25.6226L55.1411 25.2745C57.0808 24.8721 57.5058 24.6872 58.1378 24.0019C59.2384 22.8054 59.282 22.5444 59.2384 16.2575L59.2058 11.1453L58.9333 10.6558C58.7808 10.3948 58.4647 10.0358 58.2141 9.86179C57.4622 9.33969 56.9609 9.36145 53.1687 10.1337ZM55.7731 17.3996C55.7731 19.7925 55.7513 21.7504 55.7186 21.7504C55.686 21.7504 55.1956 21.8483 54.618 21.9788C54.0405 22.0984 53.5392 22.1746 53.5065 22.1311C53.3975 22.0332 53.3649 13.7884 53.4629 13.6361C53.5283 13.5382 55.1302 13.114 55.6424 13.0596C55.7404 13.0488 55.7731 13.9842 55.7731 17.3996Z" fill="black"/>
<path d="M45.6386 11.6891C43.5028 12.1242 40.7676 12.6463 39.2964 12.9074L38.2285 13.0923V25.59V38.0876L38.4792 38.0441C38.6099 38.0115 39.3945 37.8484 40.2227 37.6852L41.7156 37.3806V32.573V27.7545L42.0534 27.6892C43.0233 27.5043 43.7316 27.7545 44.1348 28.4506C44.3092 28.7443 44.3309 29.1467 44.3309 32.7144C44.3418 34.8789 44.3745 36.6628 44.4181 36.6954C44.4617 36.7171 45.2354 36.5866 46.129 36.3908L47.7636 36.0536L47.7963 31.5288L47.818 26.9931L47.1642 26.384L46.4995 25.7749L46.8264 25.3724C47.0117 25.144 47.295 24.6654 47.4584 24.3065L47.7636 23.6539L47.7963 20.1188C47.8072 18.1718 47.8289 15.3982 47.8507 13.9407C47.8725 11.3737 47.8725 11.3084 47.6546 11.3193C47.5347 11.3193 46.6303 11.4934 45.6386 11.6891ZM44.3309 19.4227V23.4037L44.0258 23.6974C43.797 23.9367 43.5463 24.0345 42.9688 24.1324C42.5438 24.2086 42.097 24.2956 41.9663 24.3282L41.7156 24.3826V20.1406V15.8985L42.5111 15.7354C42.9361 15.6375 43.3938 15.5396 43.5137 15.5178C43.6335 15.4852 43.8624 15.4635 44.0367 15.4526L44.3309 15.4417V19.4227Z" fill="black"/>
<path d="M35.5042 13.6688C35.1773 13.745 33.7062 14.0278 32.2351 14.2997C30.764 14.5716 29.2384 14.9197 28.8461 15.072C27.9961 15.3874 27.3314 15.9204 26.9391 16.5948C26.3179 17.6607 26.3397 17.1386 26.3506 29.4188C26.3506 35.6295 26.3833 40.7417 26.4051 40.7635C26.4269 40.7961 27.0044 40.6873 27.6801 40.5351C28.3557 40.3828 29.4781 40.1544 30.1646 40.0238C34.2075 39.2842 35.0357 38.8709 35.8203 37.2067L36.1036 36.5976L36.1363 27.7328C36.1472 22.8599 36.1472 17.6716 36.1363 16.2032L36.1036 13.5274L35.5042 13.6688ZM32.7799 26.917V36.1081L32.5402 36.1625C32.028 36.2822 30.0012 36.652 29.8704 36.652C29.7614 36.652 29.7287 34.7376 29.7287 27.4609V18.2698L29.9794 18.2263C30.9165 18.0305 32.4312 17.7586 32.5947 17.7368C32.7691 17.726 32.7799 18.2263 32.7799 26.917Z" fill="black"/>
<path d="M19.3219 16.8665C16.9245 17.3342 14.8431 17.7475 14.7015 17.7802L14.4399 17.8454L14.5053 30.528C14.538 37.5002 14.5925 43.2215 14.6143 43.2433C14.6797 43.3085 23.9859 41.3833 24.1711 41.2745C24.3128 41.1875 24.3237 31.1045 24.182 31.1045C24.1167 31.1045 23.8333 31.3656 23.5391 31.6701C23.2449 31.9855 22.5148 32.7796 21.9045 33.4322L20.793 34.6287V36.5648V38.49L20.3898 38.5988C19.943 38.7184 18.2213 39.0447 18.0578 39.0447C18.0033 39.0447 17.9706 35.2051 17.9815 29.821L18.0142 20.6082L18.9405 20.4233C19.4527 20.3254 20.0738 20.2166 20.3353 20.1731L20.793 20.1078V21.9026V23.6973L22.177 24.1432C22.9398 24.3825 23.7026 24.5892 23.8878 24.6109L24.2147 24.6327L24.2256 23.7081C24.2365 23.1969 24.2147 21.2499 24.182 19.3791C24.1384 16.0181 24.1384 15.9855 23.9096 15.9963C23.7788 15.9963 21.7193 16.3879 19.3219 16.8665Z" fill="black"/>
<path d="M10.2772 18.6069C5.79849 19.4662 5.27542 19.5858 4.68697 19.8795C3.92417 20.2385 3.24854 20.8911 2.84534 21.6634L2.54022 22.2398L2.50753 25.7314C2.47484 29.0815 2.48574 29.2446 2.71458 29.8429C2.84534 30.2127 3.11777 30.6369 3.35751 30.8762C3.59725 31.1046 4.79594 31.8116 6.33245 32.6274L8.91508 33.987V37.4785V40.9701L7.6946 41.2093C7.01897 41.329 6.35424 41.4704 6.22348 41.503L5.97284 41.5683L5.95105 38.7729L5.91835 35.9775L4.22929 35.1182C3.30303 34.6505 2.54022 34.2589 2.51843 34.2589C2.44215 34.2589 2.49663 45.6689 2.57291 45.7124C2.6165 45.7451 4.02224 45.4731 5.70041 45.1251C7.37858 44.7879 9.54712 44.3419 10.5279 44.1461L12.2932 43.7872V38.1638C12.2932 32.9102 12.2823 32.5077 12.0862 32.0618C11.8246 31.4309 11.3561 31.0502 10.0484 30.3432C9.45994 30.0278 8.29394 29.4078 7.47665 28.9618L5.97284 28.1461V25.5573V22.9795L7.21512 22.7402C9.11123 22.3921 8.91508 22.2181 8.91508 24.2521C8.91508 25.9598 8.91508 25.9924 9.16572 26.0468C9.52533 26.1338 11.999 26.5363 12.1624 26.5363C12.2605 26.5363 12.2932 25.6335 12.2932 22.403C12.2932 18.5308 12.2823 18.2697 12.108 18.2806C11.999 18.2915 11.1817 18.4329 10.2772 18.6069Z" fill="black"/>
</svg>
